%TF.GenerationSoftware,KiCad,Pcbnew,8.0.4*%
%TF.CreationDate,2024-08-06T21:58:01+07:00*%
%TF.ProjectId,cp2104-pd-source-v01,63703231-3034-42d7-9064-2d736f757263,rev?*%
%TF.SameCoordinates,Original*%
%TF.FileFunction,Legend,Top*%
%TF.FilePolarity,Positive*%
%FSLAX46Y46*%
G04 Gerber Fmt 4.6, Leading zero omitted, Abs format (unit mm)*
G04 Created by KiCad (PCBNEW 8.0.4) date 2024-08-06 21:58:01*
%MOMM*%
%LPD*%
G01*
G04 APERTURE LIST*
G04 Aperture macros list*
%AMRoundRect*
0 Rectangle with rounded corners*
0 $1 Rounding radius*
0 $2 $3 $4 $5 $6 $7 $8 $9 X,Y pos of 4 corners*
0 Add a 4 corners polygon primitive as box body*
4,1,4,$2,$3,$4,$5,$6,$7,$8,$9,$2,$3,0*
0 Add four circle primitives for the rounded corners*
1,1,$1+$1,$2,$3*
1,1,$1+$1,$4,$5*
1,1,$1+$1,$6,$7*
1,1,$1+$1,$8,$9*
0 Add four rect primitives between the rounded corners*
20,1,$1+$1,$2,$3,$4,$5,0*
20,1,$1+$1,$4,$5,$6,$7,0*
20,1,$1+$1,$6,$7,$8,$9,0*
20,1,$1+$1,$8,$9,$2,$3,0*%
G04 Aperture macros list end*
%ADD10C,0.100000*%
%ADD11C,0.000000*%
%ADD12C,0.120000*%
%ADD13C,0.150000*%
%ADD14C,0.300000*%
%ADD15R,6.000000X0.760000*%
%ADD16RoundRect,0.150000X-0.150000X0.587500X-0.150000X-0.587500X0.150000X-0.587500X0.150000X0.587500X0*%
%ADD17RoundRect,0.200000X0.200000X0.275000X-0.200000X0.275000X-0.200000X-0.275000X0.200000X-0.275000X0*%
%ADD18RoundRect,0.225000X-0.225000X-0.250000X0.225000X-0.250000X0.225000X0.250000X-0.225000X0.250000X0*%
%ADD19C,0.650000*%
%ADD20RoundRect,0.150000X-0.425000X0.150000X-0.425000X-0.150000X0.425000X-0.150000X0.425000X0.150000X0*%
%ADD21RoundRect,0.075000X-0.500000X0.075000X-0.500000X-0.075000X0.500000X-0.075000X0.500000X0.075000X0*%
%ADD22O,2.100000X1.000000*%
%ADD23O,1.800000X1.000000*%
%ADD24RoundRect,0.225000X0.225000X0.250000X-0.225000X0.250000X-0.225000X-0.250000X0.225000X-0.250000X0*%
%ADD25RoundRect,0.200000X-0.200000X-0.275000X0.200000X-0.275000X0.200000X0.275000X-0.200000X0.275000X0*%
%ADD26RoundRect,0.062500X-0.350000X-0.062500X0.350000X-0.062500X0.350000X0.062500X-0.350000X0.062500X0*%
%ADD27RoundRect,0.062500X-0.062500X-0.350000X0.062500X-0.350000X0.062500X0.350000X-0.062500X0.350000X0*%
%ADD28R,2.600000X2.600000*%
%ADD29RoundRect,0.225000X0.250000X-0.225000X0.250000X0.225000X-0.250000X0.225000X-0.250000X-0.225000X0*%
%ADD30RoundRect,0.250000X-0.325000X-0.650000X0.325000X-0.650000X0.325000X0.650000X-0.325000X0.650000X0*%
%ADD31RoundRect,0.225000X-0.250000X0.225000X-0.250000X-0.225000X0.250000X-0.225000X0.250000X0.225000X0*%
%ADD32RoundRect,0.250000X0.325000X0.650000X-0.325000X0.650000X-0.325000X-0.650000X0.325000X-0.650000X0*%
%ADD33RoundRect,0.200000X0.275000X-0.200000X0.275000X0.200000X-0.275000X0.200000X-0.275000X-0.200000X0*%
%ADD34O,1.730000X0.340000*%
%ADD35R,2.500000X1.000000*%
G04 APERTURE END LIST*
D10*
X137432450Y-69981309D02*
X137384831Y-69957500D01*
X137384831Y-69957500D02*
X137337212Y-69909881D01*
X137337212Y-69909881D02*
X137265784Y-69838452D01*
X137265784Y-69838452D02*
X137218165Y-69814642D01*
X137218165Y-69814642D02*
X137170546Y-69814642D01*
X137194355Y-69933690D02*
X137146736Y-69909881D01*
X137146736Y-69909881D02*
X137099117Y-69862261D01*
X137099117Y-69862261D02*
X137075308Y-69767023D01*
X137075308Y-69767023D02*
X137075308Y-69600357D01*
X137075308Y-69600357D02*
X137099117Y-69505119D01*
X137099117Y-69505119D02*
X137146736Y-69457500D01*
X137146736Y-69457500D02*
X137194355Y-69433690D01*
X137194355Y-69433690D02*
X137289593Y-69433690D01*
X137289593Y-69433690D02*
X137337212Y-69457500D01*
X137337212Y-69457500D02*
X137384831Y-69505119D01*
X137384831Y-69505119D02*
X137408641Y-69600357D01*
X137408641Y-69600357D02*
X137408641Y-69767023D01*
X137408641Y-69767023D02*
X137384831Y-69862261D01*
X137384831Y-69862261D02*
X137337212Y-69909881D01*
X137337212Y-69909881D02*
X137289593Y-69933690D01*
X137289593Y-69933690D02*
X137194355Y-69933690D01*
X137884832Y-69933690D02*
X137599118Y-69933690D01*
X137741975Y-69933690D02*
X137741975Y-69433690D01*
X137741975Y-69433690D02*
X137694356Y-69505119D01*
X137694356Y-69505119D02*
X137646737Y-69552738D01*
X137646737Y-69552738D02*
X137599118Y-69576547D01*
X129011666Y-59060109D02*
X128845000Y-58822014D01*
X128725952Y-59060109D02*
X128725952Y-58560109D01*
X128725952Y-58560109D02*
X128916428Y-58560109D01*
X128916428Y-58560109D02*
X128964047Y-58583919D01*
X128964047Y-58583919D02*
X128987857Y-58607728D01*
X128987857Y-58607728D02*
X129011666Y-58655347D01*
X129011666Y-58655347D02*
X129011666Y-58726776D01*
X129011666Y-58726776D02*
X128987857Y-58774395D01*
X128987857Y-58774395D02*
X128964047Y-58798204D01*
X128964047Y-58798204D02*
X128916428Y-58822014D01*
X128916428Y-58822014D02*
X128725952Y-58822014D01*
X129440238Y-58726776D02*
X129440238Y-59060109D01*
X129321190Y-58536300D02*
X129202143Y-58893442D01*
X129202143Y-58893442D02*
X129511666Y-58893442D01*
X133018677Y-68122303D02*
X132994868Y-68146113D01*
X132994868Y-68146113D02*
X132923439Y-68169922D01*
X132923439Y-68169922D02*
X132875820Y-68169922D01*
X132875820Y-68169922D02*
X132804392Y-68146113D01*
X132804392Y-68146113D02*
X132756773Y-68098493D01*
X132756773Y-68098493D02*
X132732963Y-68050874D01*
X132732963Y-68050874D02*
X132709154Y-67955636D01*
X132709154Y-67955636D02*
X132709154Y-67884208D01*
X132709154Y-67884208D02*
X132732963Y-67788970D01*
X132732963Y-67788970D02*
X132756773Y-67741351D01*
X132756773Y-67741351D02*
X132804392Y-67693732D01*
X132804392Y-67693732D02*
X132875820Y-67669922D01*
X132875820Y-67669922D02*
X132923439Y-67669922D01*
X132923439Y-67669922D02*
X132994868Y-67693732D01*
X132994868Y-67693732D02*
X133018677Y-67717541D01*
X133494868Y-68169922D02*
X133209154Y-68169922D01*
X133352011Y-68169922D02*
X133352011Y-67669922D01*
X133352011Y-67669922D02*
X133304392Y-67741351D01*
X133304392Y-67741351D02*
X133256773Y-67788970D01*
X133256773Y-67788970D02*
X133209154Y-67812779D01*
X122849013Y-54057238D02*
X122849013Y-54414381D01*
X122849013Y-54414381D02*
X122825204Y-54485809D01*
X122825204Y-54485809D02*
X122777585Y-54533429D01*
X122777585Y-54533429D02*
X122706156Y-54557238D01*
X122706156Y-54557238D02*
X122658537Y-54557238D01*
X123349013Y-54557238D02*
X123063299Y-54557238D01*
X123206156Y-54557238D02*
X123206156Y-54057238D01*
X123206156Y-54057238D02*
X123158537Y-54128667D01*
X123158537Y-54128667D02*
X123110918Y-54176286D01*
X123110918Y-54176286D02*
X123063299Y-54200095D01*
X132631666Y-51613490D02*
X132607857Y-51637300D01*
X132607857Y-51637300D02*
X132536428Y-51661109D01*
X132536428Y-51661109D02*
X132488809Y-51661109D01*
X132488809Y-51661109D02*
X132417381Y-51637300D01*
X132417381Y-51637300D02*
X132369762Y-51589680D01*
X132369762Y-51589680D02*
X132345952Y-51542061D01*
X132345952Y-51542061D02*
X132322143Y-51446823D01*
X132322143Y-51446823D02*
X132322143Y-51375395D01*
X132322143Y-51375395D02*
X132345952Y-51280157D01*
X132345952Y-51280157D02*
X132369762Y-51232538D01*
X132369762Y-51232538D02*
X132417381Y-51184919D01*
X132417381Y-51184919D02*
X132488809Y-51161109D01*
X132488809Y-51161109D02*
X132536428Y-51161109D01*
X132536428Y-51161109D02*
X132607857Y-51184919D01*
X132607857Y-51184919D02*
X132631666Y-51208728D01*
X133084047Y-51161109D02*
X132845952Y-51161109D01*
X132845952Y-51161109D02*
X132822143Y-51399204D01*
X132822143Y-51399204D02*
X132845952Y-51375395D01*
X132845952Y-51375395D02*
X132893571Y-51351585D01*
X132893571Y-51351585D02*
X133012619Y-51351585D01*
X133012619Y-51351585D02*
X133060238Y-51375395D01*
X133060238Y-51375395D02*
X133084047Y-51399204D01*
X133084047Y-51399204D02*
X133107857Y-51446823D01*
X133107857Y-51446823D02*
X133107857Y-51565871D01*
X133107857Y-51565871D02*
X133084047Y-51613490D01*
X133084047Y-51613490D02*
X133060238Y-51637300D01*
X133060238Y-51637300D02*
X133012619Y-51661109D01*
X133012619Y-51661109D02*
X132893571Y-51661109D01*
X132893571Y-51661109D02*
X132845952Y-51637300D01*
X132845952Y-51637300D02*
X132822143Y-51613490D01*
X126916666Y-54836109D02*
X126750000Y-54598014D01*
X126630952Y-54836109D02*
X126630952Y-54336109D01*
X126630952Y-54336109D02*
X126821428Y-54336109D01*
X126821428Y-54336109D02*
X126869047Y-54359919D01*
X126869047Y-54359919D02*
X126892857Y-54383728D01*
X126892857Y-54383728D02*
X126916666Y-54431347D01*
X126916666Y-54431347D02*
X126916666Y-54502776D01*
X126916666Y-54502776D02*
X126892857Y-54550395D01*
X126892857Y-54550395D02*
X126869047Y-54574204D01*
X126869047Y-54574204D02*
X126821428Y-54598014D01*
X126821428Y-54598014D02*
X126630952Y-54598014D01*
X127345238Y-54336109D02*
X127250000Y-54336109D01*
X127250000Y-54336109D02*
X127202381Y-54359919D01*
X127202381Y-54359919D02*
X127178571Y-54383728D01*
X127178571Y-54383728D02*
X127130952Y-54455157D01*
X127130952Y-54455157D02*
X127107143Y-54550395D01*
X127107143Y-54550395D02*
X127107143Y-54740871D01*
X127107143Y-54740871D02*
X127130952Y-54788490D01*
X127130952Y-54788490D02*
X127154762Y-54812300D01*
X127154762Y-54812300D02*
X127202381Y-54836109D01*
X127202381Y-54836109D02*
X127297619Y-54836109D01*
X127297619Y-54836109D02*
X127345238Y-54812300D01*
X127345238Y-54812300D02*
X127369047Y-54788490D01*
X127369047Y-54788490D02*
X127392857Y-54740871D01*
X127392857Y-54740871D02*
X127392857Y-54621823D01*
X127392857Y-54621823D02*
X127369047Y-54574204D01*
X127369047Y-54574204D02*
X127345238Y-54550395D01*
X127345238Y-54550395D02*
X127297619Y-54526585D01*
X127297619Y-54526585D02*
X127202381Y-54526585D01*
X127202381Y-54526585D02*
X127154762Y-54550395D01*
X127154762Y-54550395D02*
X127130952Y-54574204D01*
X127130952Y-54574204D02*
X127107143Y-54621823D01*
X126916666Y-56106109D02*
X126750000Y-55868014D01*
X126630952Y-56106109D02*
X126630952Y-55606109D01*
X126630952Y-55606109D02*
X126821428Y-55606109D01*
X126821428Y-55606109D02*
X126869047Y-55629919D01*
X126869047Y-55629919D02*
X126892857Y-55653728D01*
X126892857Y-55653728D02*
X126916666Y-55701347D01*
X126916666Y-55701347D02*
X126916666Y-55772776D01*
X126916666Y-55772776D02*
X126892857Y-55820395D01*
X126892857Y-55820395D02*
X126869047Y-55844204D01*
X126869047Y-55844204D02*
X126821428Y-55868014D01*
X126821428Y-55868014D02*
X126630952Y-55868014D01*
X127083333Y-55606109D02*
X127392857Y-55606109D01*
X127392857Y-55606109D02*
X127226190Y-55796585D01*
X127226190Y-55796585D02*
X127297619Y-55796585D01*
X127297619Y-55796585D02*
X127345238Y-55820395D01*
X127345238Y-55820395D02*
X127369047Y-55844204D01*
X127369047Y-55844204D02*
X127392857Y-55891823D01*
X127392857Y-55891823D02*
X127392857Y-56010871D01*
X127392857Y-56010871D02*
X127369047Y-56058490D01*
X127369047Y-56058490D02*
X127345238Y-56082300D01*
X127345238Y-56082300D02*
X127297619Y-56106109D01*
X127297619Y-56106109D02*
X127154762Y-56106109D01*
X127154762Y-56106109D02*
X127107143Y-56082300D01*
X127107143Y-56082300D02*
X127083333Y-56058490D01*
X135663522Y-60313997D02*
X135496856Y-60075902D01*
X135377808Y-60313997D02*
X135377808Y-59813997D01*
X135377808Y-59813997D02*
X135568284Y-59813997D01*
X135568284Y-59813997D02*
X135615903Y-59837807D01*
X135615903Y-59837807D02*
X135639713Y-59861616D01*
X135639713Y-59861616D02*
X135663522Y-59909235D01*
X135663522Y-59909235D02*
X135663522Y-59980664D01*
X135663522Y-59980664D02*
X135639713Y-60028283D01*
X135639713Y-60028283D02*
X135615903Y-60052092D01*
X135615903Y-60052092D02*
X135568284Y-60075902D01*
X135568284Y-60075902D02*
X135377808Y-60075902D01*
X136139713Y-60313997D02*
X135853999Y-60313997D01*
X135996856Y-60313997D02*
X135996856Y-59813997D01*
X135996856Y-59813997D02*
X135949237Y-59885426D01*
X135949237Y-59885426D02*
X135901618Y-59933045D01*
X135901618Y-59933045D02*
X135853999Y-59956854D01*
X132857047Y-59814109D02*
X132857047Y-60218871D01*
X132857047Y-60218871D02*
X132880857Y-60266490D01*
X132880857Y-60266490D02*
X132904666Y-60290300D01*
X132904666Y-60290300D02*
X132952285Y-60314109D01*
X132952285Y-60314109D02*
X133047523Y-60314109D01*
X133047523Y-60314109D02*
X133095142Y-60290300D01*
X133095142Y-60290300D02*
X133118952Y-60266490D01*
X133118952Y-60266490D02*
X133142761Y-60218871D01*
X133142761Y-60218871D02*
X133142761Y-59814109D01*
X133642762Y-60314109D02*
X133357048Y-60314109D01*
X133499905Y-60314109D02*
X133499905Y-59814109D01*
X133499905Y-59814109D02*
X133452286Y-59885538D01*
X133452286Y-59885538D02*
X133404667Y-59933157D01*
X133404667Y-59933157D02*
X133357048Y-59956966D01*
X139616666Y-50978490D02*
X139592857Y-51002300D01*
X139592857Y-51002300D02*
X139521428Y-51026109D01*
X139521428Y-51026109D02*
X139473809Y-51026109D01*
X139473809Y-51026109D02*
X139402381Y-51002300D01*
X139402381Y-51002300D02*
X139354762Y-50954680D01*
X139354762Y-50954680D02*
X139330952Y-50907061D01*
X139330952Y-50907061D02*
X139307143Y-50811823D01*
X139307143Y-50811823D02*
X139307143Y-50740395D01*
X139307143Y-50740395D02*
X139330952Y-50645157D01*
X139330952Y-50645157D02*
X139354762Y-50597538D01*
X139354762Y-50597538D02*
X139402381Y-50549919D01*
X139402381Y-50549919D02*
X139473809Y-50526109D01*
X139473809Y-50526109D02*
X139521428Y-50526109D01*
X139521428Y-50526109D02*
X139592857Y-50549919D01*
X139592857Y-50549919D02*
X139616666Y-50573728D01*
X140045238Y-50692776D02*
X140045238Y-51026109D01*
X139926190Y-50502300D02*
X139807143Y-50859442D01*
X139807143Y-50859442D02*
X140116666Y-50859442D01*
X126916666Y-52931109D02*
X126750000Y-52693014D01*
X126630952Y-52931109D02*
X126630952Y-52431109D01*
X126630952Y-52431109D02*
X126821428Y-52431109D01*
X126821428Y-52431109D02*
X126869047Y-52454919D01*
X126869047Y-52454919D02*
X126892857Y-52478728D01*
X126892857Y-52478728D02*
X126916666Y-52526347D01*
X126916666Y-52526347D02*
X126916666Y-52597776D01*
X126916666Y-52597776D02*
X126892857Y-52645395D01*
X126892857Y-52645395D02*
X126869047Y-52669204D01*
X126869047Y-52669204D02*
X126821428Y-52693014D01*
X126821428Y-52693014D02*
X126630952Y-52693014D01*
X127369047Y-52431109D02*
X127130952Y-52431109D01*
X127130952Y-52431109D02*
X127107143Y-52669204D01*
X127107143Y-52669204D02*
X127130952Y-52645395D01*
X127130952Y-52645395D02*
X127178571Y-52621585D01*
X127178571Y-52621585D02*
X127297619Y-52621585D01*
X127297619Y-52621585D02*
X127345238Y-52645395D01*
X127345238Y-52645395D02*
X127369047Y-52669204D01*
X127369047Y-52669204D02*
X127392857Y-52716823D01*
X127392857Y-52716823D02*
X127392857Y-52835871D01*
X127392857Y-52835871D02*
X127369047Y-52883490D01*
X127369047Y-52883490D02*
X127345238Y-52907300D01*
X127345238Y-52907300D02*
X127297619Y-52931109D01*
X127297619Y-52931109D02*
X127178571Y-52931109D01*
X127178571Y-52931109D02*
X127130952Y-52907300D01*
X127130952Y-52907300D02*
X127107143Y-52883490D01*
X144061666Y-50398490D02*
X144037857Y-50422300D01*
X144037857Y-50422300D02*
X143966428Y-50446109D01*
X143966428Y-50446109D02*
X143918809Y-50446109D01*
X143918809Y-50446109D02*
X143847381Y-50422300D01*
X143847381Y-50422300D02*
X143799762Y-50374680D01*
X143799762Y-50374680D02*
X143775952Y-50327061D01*
X143775952Y-50327061D02*
X143752143Y-50231823D01*
X143752143Y-50231823D02*
X143752143Y-50160395D01*
X143752143Y-50160395D02*
X143775952Y-50065157D01*
X143775952Y-50065157D02*
X143799762Y-50017538D01*
X143799762Y-50017538D02*
X143847381Y-49969919D01*
X143847381Y-49969919D02*
X143918809Y-49946109D01*
X143918809Y-49946109D02*
X143966428Y-49946109D01*
X143966428Y-49946109D02*
X144037857Y-49969919D01*
X144037857Y-49969919D02*
X144061666Y-49993728D01*
X144347381Y-50160395D02*
X144299762Y-50136585D01*
X144299762Y-50136585D02*
X144275952Y-50112776D01*
X144275952Y-50112776D02*
X144252143Y-50065157D01*
X144252143Y-50065157D02*
X144252143Y-50041347D01*
X144252143Y-50041347D02*
X144275952Y-49993728D01*
X144275952Y-49993728D02*
X144299762Y-49969919D01*
X144299762Y-49969919D02*
X144347381Y-49946109D01*
X144347381Y-49946109D02*
X144442619Y-49946109D01*
X144442619Y-49946109D02*
X144490238Y-49969919D01*
X144490238Y-49969919D02*
X144514047Y-49993728D01*
X144514047Y-49993728D02*
X144537857Y-50041347D01*
X144537857Y-50041347D02*
X144537857Y-50065157D01*
X144537857Y-50065157D02*
X144514047Y-50112776D01*
X144514047Y-50112776D02*
X144490238Y-50136585D01*
X144490238Y-50136585D02*
X144442619Y-50160395D01*
X144442619Y-50160395D02*
X144347381Y-50160395D01*
X144347381Y-50160395D02*
X144299762Y-50184204D01*
X144299762Y-50184204D02*
X144275952Y-50208014D01*
X144275952Y-50208014D02*
X144252143Y-50255633D01*
X144252143Y-50255633D02*
X144252143Y-50350871D01*
X144252143Y-50350871D02*
X144275952Y-50398490D01*
X144275952Y-50398490D02*
X144299762Y-50422300D01*
X144299762Y-50422300D02*
X144347381Y-50446109D01*
X144347381Y-50446109D02*
X144442619Y-50446109D01*
X144442619Y-50446109D02*
X144490238Y-50422300D01*
X144490238Y-50422300D02*
X144514047Y-50398490D01*
X144514047Y-50398490D02*
X144537857Y-50350871D01*
X144537857Y-50350871D02*
X144537857Y-50255633D01*
X144537857Y-50255633D02*
X144514047Y-50208014D01*
X144514047Y-50208014D02*
X144490238Y-50184204D01*
X144490238Y-50184204D02*
X144442619Y-50160395D01*
X126154666Y-65583490D02*
X126130857Y-65607300D01*
X126130857Y-65607300D02*
X126059428Y-65631109D01*
X126059428Y-65631109D02*
X126011809Y-65631109D01*
X126011809Y-65631109D02*
X125940381Y-65607300D01*
X125940381Y-65607300D02*
X125892762Y-65559680D01*
X125892762Y-65559680D02*
X125868952Y-65512061D01*
X125868952Y-65512061D02*
X125845143Y-65416823D01*
X125845143Y-65416823D02*
X125845143Y-65345395D01*
X125845143Y-65345395D02*
X125868952Y-65250157D01*
X125868952Y-65250157D02*
X125892762Y-65202538D01*
X125892762Y-65202538D02*
X125940381Y-65154919D01*
X125940381Y-65154919D02*
X126011809Y-65131109D01*
X126011809Y-65131109D02*
X126059428Y-65131109D01*
X126059428Y-65131109D02*
X126130857Y-65154919D01*
X126130857Y-65154919D02*
X126154666Y-65178728D01*
X126583238Y-65131109D02*
X126488000Y-65131109D01*
X126488000Y-65131109D02*
X126440381Y-65154919D01*
X126440381Y-65154919D02*
X126416571Y-65178728D01*
X126416571Y-65178728D02*
X126368952Y-65250157D01*
X126368952Y-65250157D02*
X126345143Y-65345395D01*
X126345143Y-65345395D02*
X126345143Y-65535871D01*
X126345143Y-65535871D02*
X126368952Y-65583490D01*
X126368952Y-65583490D02*
X126392762Y-65607300D01*
X126392762Y-65607300D02*
X126440381Y-65631109D01*
X126440381Y-65631109D02*
X126535619Y-65631109D01*
X126535619Y-65631109D02*
X126583238Y-65607300D01*
X126583238Y-65607300D02*
X126607047Y-65583490D01*
X126607047Y-65583490D02*
X126630857Y-65535871D01*
X126630857Y-65535871D02*
X126630857Y-65416823D01*
X126630857Y-65416823D02*
X126607047Y-65369204D01*
X126607047Y-65369204D02*
X126583238Y-65345395D01*
X126583238Y-65345395D02*
X126535619Y-65321585D01*
X126535619Y-65321585D02*
X126440381Y-65321585D01*
X126440381Y-65321585D02*
X126392762Y-65345395D01*
X126392762Y-65345395D02*
X126368952Y-65369204D01*
X126368952Y-65369204D02*
X126345143Y-65416823D01*
X137410678Y-62776714D02*
X137386869Y-62800524D01*
X137386869Y-62800524D02*
X137315440Y-62824333D01*
X137315440Y-62824333D02*
X137267821Y-62824333D01*
X137267821Y-62824333D02*
X137196393Y-62800524D01*
X137196393Y-62800524D02*
X137148774Y-62752904D01*
X137148774Y-62752904D02*
X137124964Y-62705285D01*
X137124964Y-62705285D02*
X137101155Y-62610047D01*
X137101155Y-62610047D02*
X137101155Y-62538619D01*
X137101155Y-62538619D02*
X137124964Y-62443381D01*
X137124964Y-62443381D02*
X137148774Y-62395762D01*
X137148774Y-62395762D02*
X137196393Y-62348143D01*
X137196393Y-62348143D02*
X137267821Y-62324333D01*
X137267821Y-62324333D02*
X137315440Y-62324333D01*
X137315440Y-62324333D02*
X137386869Y-62348143D01*
X137386869Y-62348143D02*
X137410678Y-62371952D01*
X137601155Y-62371952D02*
X137624964Y-62348143D01*
X137624964Y-62348143D02*
X137672583Y-62324333D01*
X137672583Y-62324333D02*
X137791631Y-62324333D01*
X137791631Y-62324333D02*
X137839250Y-62348143D01*
X137839250Y-62348143D02*
X137863059Y-62371952D01*
X137863059Y-62371952D02*
X137886869Y-62419571D01*
X137886869Y-62419571D02*
X137886869Y-62467190D01*
X137886869Y-62467190D02*
X137863059Y-62538619D01*
X137863059Y-62538619D02*
X137577345Y-62824333D01*
X137577345Y-62824333D02*
X137886869Y-62824333D01*
X139606189Y-62291963D02*
X139558570Y-62268154D01*
X139558570Y-62268154D02*
X139510951Y-62220535D01*
X139510951Y-62220535D02*
X139439523Y-62149106D01*
X139439523Y-62149106D02*
X139391904Y-62125296D01*
X139391904Y-62125296D02*
X139344285Y-62125296D01*
X139368094Y-62244344D02*
X139320475Y-62220535D01*
X139320475Y-62220535D02*
X139272856Y-62172915D01*
X139272856Y-62172915D02*
X139249047Y-62077677D01*
X139249047Y-62077677D02*
X139249047Y-61911011D01*
X139249047Y-61911011D02*
X139272856Y-61815773D01*
X139272856Y-61815773D02*
X139320475Y-61768154D01*
X139320475Y-61768154D02*
X139368094Y-61744344D01*
X139368094Y-61744344D02*
X139463332Y-61744344D01*
X139463332Y-61744344D02*
X139510951Y-61768154D01*
X139510951Y-61768154D02*
X139558570Y-61815773D01*
X139558570Y-61815773D02*
X139582380Y-61911011D01*
X139582380Y-61911011D02*
X139582380Y-62077677D01*
X139582380Y-62077677D02*
X139558570Y-62172915D01*
X139558570Y-62172915D02*
X139510951Y-62220535D01*
X139510951Y-62220535D02*
X139463332Y-62244344D01*
X139463332Y-62244344D02*
X139368094Y-62244344D01*
X139772857Y-61791963D02*
X139796666Y-61768154D01*
X139796666Y-61768154D02*
X139844285Y-61744344D01*
X139844285Y-61744344D02*
X139963333Y-61744344D01*
X139963333Y-61744344D02*
X140010952Y-61768154D01*
X140010952Y-61768154D02*
X140034761Y-61791963D01*
X140034761Y-61791963D02*
X140058571Y-61839582D01*
X140058571Y-61839582D02*
X140058571Y-61887201D01*
X140058571Y-61887201D02*
X140034761Y-61958630D01*
X140034761Y-61958630D02*
X139749047Y-62244344D01*
X139749047Y-62244344D02*
X140058571Y-62244344D01*
X147551891Y-68390858D02*
X147528082Y-68414668D01*
X147528082Y-68414668D02*
X147456653Y-68438477D01*
X147456653Y-68438477D02*
X147409034Y-68438477D01*
X147409034Y-68438477D02*
X147337606Y-68414668D01*
X147337606Y-68414668D02*
X147289987Y-68367048D01*
X147289987Y-68367048D02*
X147266177Y-68319429D01*
X147266177Y-68319429D02*
X147242368Y-68224191D01*
X147242368Y-68224191D02*
X147242368Y-68152763D01*
X147242368Y-68152763D02*
X147266177Y-68057525D01*
X147266177Y-68057525D02*
X147289987Y-68009906D01*
X147289987Y-68009906D02*
X147337606Y-67962287D01*
X147337606Y-67962287D02*
X147409034Y-67938477D01*
X147409034Y-67938477D02*
X147456653Y-67938477D01*
X147456653Y-67938477D02*
X147528082Y-67962287D01*
X147528082Y-67962287D02*
X147551891Y-67986096D01*
X147718558Y-67938477D02*
X148051891Y-67938477D01*
X148051891Y-67938477D02*
X147837606Y-68438477D01*
X139532943Y-58303932D02*
X139366277Y-58065837D01*
X139247229Y-58303932D02*
X139247229Y-57803932D01*
X139247229Y-57803932D02*
X139437705Y-57803932D01*
X139437705Y-57803932D02*
X139485324Y-57827742D01*
X139485324Y-57827742D02*
X139509134Y-57851551D01*
X139509134Y-57851551D02*
X139532943Y-57899170D01*
X139532943Y-57899170D02*
X139532943Y-57970599D01*
X139532943Y-57970599D02*
X139509134Y-58018218D01*
X139509134Y-58018218D02*
X139485324Y-58042027D01*
X139485324Y-58042027D02*
X139437705Y-58065837D01*
X139437705Y-58065837D02*
X139247229Y-58065837D01*
X139818658Y-58018218D02*
X139771039Y-57994408D01*
X139771039Y-57994408D02*
X139747229Y-57970599D01*
X139747229Y-57970599D02*
X139723420Y-57922980D01*
X139723420Y-57922980D02*
X139723420Y-57899170D01*
X139723420Y-57899170D02*
X139747229Y-57851551D01*
X139747229Y-57851551D02*
X139771039Y-57827742D01*
X139771039Y-57827742D02*
X139818658Y-57803932D01*
X139818658Y-57803932D02*
X139913896Y-57803932D01*
X139913896Y-57803932D02*
X139961515Y-57827742D01*
X139961515Y-57827742D02*
X139985324Y-57851551D01*
X139985324Y-57851551D02*
X140009134Y-57899170D01*
X140009134Y-57899170D02*
X140009134Y-57922980D01*
X140009134Y-57922980D02*
X139985324Y-57970599D01*
X139985324Y-57970599D02*
X139961515Y-57994408D01*
X139961515Y-57994408D02*
X139913896Y-58018218D01*
X139913896Y-58018218D02*
X139818658Y-58018218D01*
X139818658Y-58018218D02*
X139771039Y-58042027D01*
X139771039Y-58042027D02*
X139747229Y-58065837D01*
X139747229Y-58065837D02*
X139723420Y-58113456D01*
X139723420Y-58113456D02*
X139723420Y-58208694D01*
X139723420Y-58208694D02*
X139747229Y-58256313D01*
X139747229Y-58256313D02*
X139771039Y-58280123D01*
X139771039Y-58280123D02*
X139818658Y-58303932D01*
X139818658Y-58303932D02*
X139913896Y-58303932D01*
X139913896Y-58303932D02*
X139961515Y-58280123D01*
X139961515Y-58280123D02*
X139985324Y-58256313D01*
X139985324Y-58256313D02*
X140009134Y-58208694D01*
X140009134Y-58208694D02*
X140009134Y-58113456D01*
X140009134Y-58113456D02*
X139985324Y-58065837D01*
X139985324Y-58065837D02*
X139961515Y-58042027D01*
X139961515Y-58042027D02*
X139913896Y-58018218D01*
X129617442Y-67695937D02*
X129593633Y-67719747D01*
X129593633Y-67719747D02*
X129522204Y-67743556D01*
X129522204Y-67743556D02*
X129474585Y-67743556D01*
X129474585Y-67743556D02*
X129403157Y-67719747D01*
X129403157Y-67719747D02*
X129355538Y-67672127D01*
X129355538Y-67672127D02*
X129331728Y-67624508D01*
X129331728Y-67624508D02*
X129307919Y-67529270D01*
X129307919Y-67529270D02*
X129307919Y-67457842D01*
X129307919Y-67457842D02*
X129331728Y-67362604D01*
X129331728Y-67362604D02*
X129355538Y-67314985D01*
X129355538Y-67314985D02*
X129403157Y-67267366D01*
X129403157Y-67267366D02*
X129474585Y-67243556D01*
X129474585Y-67243556D02*
X129522204Y-67243556D01*
X129522204Y-67243556D02*
X129593633Y-67267366D01*
X129593633Y-67267366D02*
X129617442Y-67291175D01*
X129784109Y-67243556D02*
X130093633Y-67243556D01*
X130093633Y-67243556D02*
X129926966Y-67434032D01*
X129926966Y-67434032D02*
X129998395Y-67434032D01*
X129998395Y-67434032D02*
X130046014Y-67457842D01*
X130046014Y-67457842D02*
X130069823Y-67481651D01*
X130069823Y-67481651D02*
X130093633Y-67529270D01*
X130093633Y-67529270D02*
X130093633Y-67648318D01*
X130093633Y-67648318D02*
X130069823Y-67695937D01*
X130069823Y-67695937D02*
X130046014Y-67719747D01*
X130046014Y-67719747D02*
X129998395Y-67743556D01*
X129998395Y-67743556D02*
X129855538Y-67743556D01*
X129855538Y-67743556D02*
X129807919Y-67719747D01*
X129807919Y-67719747D02*
X129784109Y-67695937D01*
X136965016Y-51899497D02*
X136965016Y-52304259D01*
X136965016Y-52304259D02*
X136988826Y-52351878D01*
X136988826Y-52351878D02*
X137012635Y-52375688D01*
X137012635Y-52375688D02*
X137060254Y-52399497D01*
X137060254Y-52399497D02*
X137155492Y-52399497D01*
X137155492Y-52399497D02*
X137203111Y-52375688D01*
X137203111Y-52375688D02*
X137226921Y-52351878D01*
X137226921Y-52351878D02*
X137250730Y-52304259D01*
X137250730Y-52304259D02*
X137250730Y-51899497D01*
X137465017Y-51947116D02*
X137488826Y-51923307D01*
X137488826Y-51923307D02*
X137536445Y-51899497D01*
X137536445Y-51899497D02*
X137655493Y-51899497D01*
X137655493Y-51899497D02*
X137703112Y-51923307D01*
X137703112Y-51923307D02*
X137726921Y-51947116D01*
X137726921Y-51947116D02*
X137750731Y-51994735D01*
X137750731Y-51994735D02*
X137750731Y-52042354D01*
X137750731Y-52042354D02*
X137726921Y-52113783D01*
X137726921Y-52113783D02*
X137441207Y-52399497D01*
X137441207Y-52399497D02*
X137750731Y-52399497D01*
X141562041Y-58320896D02*
X141395375Y-58082801D01*
X141276327Y-58320896D02*
X141276327Y-57820896D01*
X141276327Y-57820896D02*
X141466803Y-57820896D01*
X141466803Y-57820896D02*
X141514422Y-57844706D01*
X141514422Y-57844706D02*
X141538232Y-57868515D01*
X141538232Y-57868515D02*
X141562041Y-57916134D01*
X141562041Y-57916134D02*
X141562041Y-57987563D01*
X141562041Y-57987563D02*
X141538232Y-58035182D01*
X141538232Y-58035182D02*
X141514422Y-58058991D01*
X141514422Y-58058991D02*
X141466803Y-58082801D01*
X141466803Y-58082801D02*
X141276327Y-58082801D01*
X141728708Y-57820896D02*
X142062041Y-57820896D01*
X142062041Y-57820896D02*
X141847756Y-58320896D01*
X147494539Y-52865644D02*
X147494539Y-53222787D01*
X147494539Y-53222787D02*
X147470730Y-53294215D01*
X147470730Y-53294215D02*
X147423111Y-53341835D01*
X147423111Y-53341835D02*
X147351682Y-53365644D01*
X147351682Y-53365644D02*
X147304063Y-53365644D01*
X147708825Y-52913263D02*
X147732634Y-52889454D01*
X147732634Y-52889454D02*
X147780253Y-52865644D01*
X147780253Y-52865644D02*
X147899301Y-52865644D01*
X147899301Y-52865644D02*
X147946920Y-52889454D01*
X147946920Y-52889454D02*
X147970729Y-52913263D01*
X147970729Y-52913263D02*
X147994539Y-52960882D01*
X147994539Y-52960882D02*
X147994539Y-53008501D01*
X147994539Y-53008501D02*
X147970729Y-53079930D01*
X147970729Y-53079930D02*
X147685015Y-53365644D01*
X147685015Y-53365644D02*
X147994539Y-53365644D01*
X140112049Y-59761066D02*
X139945383Y-59522971D01*
X139826335Y-59761066D02*
X139826335Y-59261066D01*
X139826335Y-59261066D02*
X140016811Y-59261066D01*
X140016811Y-59261066D02*
X140064430Y-59284876D01*
X140064430Y-59284876D02*
X140088240Y-59308685D01*
X140088240Y-59308685D02*
X140112049Y-59356304D01*
X140112049Y-59356304D02*
X140112049Y-59427733D01*
X140112049Y-59427733D02*
X140088240Y-59475352D01*
X140088240Y-59475352D02*
X140064430Y-59499161D01*
X140064430Y-59499161D02*
X140016811Y-59522971D01*
X140016811Y-59522971D02*
X139826335Y-59522971D01*
X140302526Y-59308685D02*
X140326335Y-59284876D01*
X140326335Y-59284876D02*
X140373954Y-59261066D01*
X140373954Y-59261066D02*
X140493002Y-59261066D01*
X140493002Y-59261066D02*
X140540621Y-59284876D01*
X140540621Y-59284876D02*
X140564430Y-59308685D01*
X140564430Y-59308685D02*
X140588240Y-59356304D01*
X140588240Y-59356304D02*
X140588240Y-59403923D01*
X140588240Y-59403923D02*
X140564430Y-59475352D01*
X140564430Y-59475352D02*
X140278716Y-59761066D01*
X140278716Y-59761066D02*
X140588240Y-59761066D01*
D11*
%TO.C,kibuzzard-66B1E950*%
G36*
X142917771Y-64827173D02*
G01*
X142956906Y-64832625D01*
X143021365Y-64856858D01*
X143064015Y-64901446D01*
X143079523Y-64969782D01*
X143079523Y-64980444D01*
X143078554Y-64991107D01*
X142675323Y-64991107D01*
X142672900Y-64973659D01*
X142672415Y-64956212D01*
X142689378Y-64891268D01*
X142734451Y-64851527D01*
X142799394Y-64831171D01*
X142875000Y-64825355D01*
X142917771Y-64827173D01*
G37*
G36*
X143268861Y-65303223D02*
G01*
X143268861Y-65860574D01*
X143268861Y-66105808D01*
X143268861Y-66307746D01*
X142481139Y-66307746D01*
X142481139Y-66105808D01*
X142481139Y-65846034D01*
X142561914Y-65846034D01*
X142566882Y-65898619D01*
X142581785Y-65947811D01*
X142606624Y-65992157D01*
X142641397Y-66030202D01*
X142685864Y-66061462D01*
X142739782Y-66085452D01*
X142802908Y-66100719D01*
X142875000Y-66105808D01*
X142947819Y-66101446D01*
X143011187Y-66088360D01*
X143064984Y-66067278D01*
X143109087Y-66038926D01*
X143143498Y-66003667D01*
X143168215Y-65961866D01*
X143183118Y-65914006D01*
X143188086Y-65860574D01*
X143185662Y-65801325D01*
X143178393Y-65751527D01*
X143160945Y-65685129D01*
X142861430Y-65685129D01*
X142861430Y-65804354D01*
X143080493Y-65804354D01*
X143083401Y-65827617D01*
X143084370Y-65850880D01*
X143071648Y-65908796D01*
X143033481Y-65950719D01*
X142993255Y-65969567D01*
X142940428Y-65980875D01*
X142875000Y-65984645D01*
X142830533Y-65982585D01*
X142790186Y-65976405D01*
X142724273Y-65949265D01*
X142681139Y-65901284D01*
X142665630Y-65829556D01*
X142676292Y-65765582D01*
X142700525Y-65713239D01*
X142605533Y-65682221D01*
X142593901Y-65702092D01*
X142579362Y-65735533D01*
X142567246Y-65783514D01*
X142561914Y-65846034D01*
X142481139Y-65846034D01*
X142481139Y-65207262D01*
X142575485Y-65207262D01*
X142575485Y-65314855D01*
X142944790Y-65314855D01*
X142906987Y-65331939D01*
X142863368Y-65352173D01*
X142816115Y-65374952D01*
X142767407Y-65399669D01*
X142717851Y-65425719D01*
X142668053Y-65452496D01*
X142619952Y-65479637D01*
X142575485Y-65506777D01*
X142575485Y-65602738D01*
X143175485Y-65602738D01*
X143175485Y-65495145D01*
X142777100Y-65495145D01*
X142843605Y-65459120D01*
X142910003Y-65424709D01*
X142976292Y-65391914D01*
X143042582Y-65360735D01*
X143108980Y-65331171D01*
X143175485Y-65303223D01*
X143175485Y-65207262D01*
X142575485Y-65207262D01*
X142481139Y-65207262D01*
X142481139Y-64966874D01*
X142568700Y-64966874D01*
X142571607Y-65033756D01*
X142583239Y-65110331D01*
X143168700Y-65110331D01*
X143179847Y-65044903D01*
X143183239Y-64982383D01*
X143178998Y-64923861D01*
X143166276Y-64870428D01*
X143144346Y-64823053D01*
X143112480Y-64782706D01*
X143070194Y-64749871D01*
X143017003Y-64725032D01*
X142952181Y-64709402D01*
X142875000Y-64704192D01*
X142799515Y-64708918D01*
X142735905Y-64723094D01*
X142683320Y-64745751D01*
X142640913Y-64775921D01*
X142608562Y-64813603D01*
X142586147Y-64858796D01*
X142573061Y-64910291D01*
X142568700Y-64966874D01*
X142481139Y-64966874D01*
X142481139Y-64704192D01*
X142481139Y-64502254D01*
X143268861Y-64502254D01*
X143268861Y-64704192D01*
X143268861Y-64982383D01*
X143268861Y-65303223D01*
G37*
%TO.C,kibuzzard-66B1E901*%
G36*
X142916801Y-59746204D02*
G01*
X142955937Y-59751656D01*
X143020396Y-59775889D01*
X143063045Y-59820477D01*
X143078554Y-59888813D01*
X143078554Y-59899475D01*
X143077585Y-59910137D01*
X142674354Y-59910137D01*
X142671931Y-59892690D01*
X142671446Y-59875242D01*
X142688409Y-59810299D01*
X142733481Y-59770557D01*
X142798425Y-59750202D01*
X142874031Y-59744386D01*
X142916801Y-59746204D01*
G37*
G36*
X143263045Y-60221284D02*
G01*
X143263045Y-60748586D01*
X143263045Y-61026777D01*
X143263045Y-61228716D01*
X142486955Y-61228716D01*
X142486955Y-61026777D01*
X142486955Y-60590590D01*
X142574515Y-60590590D01*
X142574515Y-61026777D01*
X142673384Y-61026777D01*
X142673384Y-60868780D01*
X143174515Y-60868780D01*
X143174515Y-60748586D01*
X142673384Y-60748586D01*
X142673384Y-60590590D01*
X142574515Y-60590590D01*
X142486955Y-60590590D01*
X142486955Y-60102060D01*
X142574515Y-60102060D01*
X142574515Y-60222254D01*
X142766438Y-60322092D01*
X142574515Y-60417084D01*
X142574515Y-60546002D01*
X142857553Y-60388974D01*
X142900081Y-60412722D01*
X142944305Y-60437439D01*
X142988772Y-60462036D01*
X143032027Y-60485420D01*
X143073223Y-60507229D01*
X143111511Y-60527100D01*
X143174515Y-60555695D01*
X143174515Y-60426777D01*
X143122052Y-60404483D01*
X143063530Y-60378312D01*
X143003069Y-60350202D01*
X142944790Y-60322092D01*
X143004887Y-60293619D01*
X143064984Y-60266357D01*
X143122415Y-60241761D01*
X143174515Y-60221284D01*
X143174515Y-60092367D01*
X143111026Y-60118538D01*
X143072254Y-60136349D01*
X143030574Y-60156826D01*
X142986834Y-60179483D01*
X142941882Y-60203837D01*
X142897294Y-60229281D01*
X142854645Y-60255210D01*
X142574515Y-60102060D01*
X142486955Y-60102060D01*
X142486955Y-59885905D01*
X142567730Y-59885905D01*
X142570638Y-59952787D01*
X142582270Y-60029362D01*
X143167730Y-60029362D01*
X143178877Y-59963934D01*
X143182270Y-59901414D01*
X143178029Y-59842892D01*
X143165307Y-59789459D01*
X143143376Y-59742084D01*
X143111511Y-59701737D01*
X143069225Y-59668901D01*
X143016034Y-59644063D01*
X142951212Y-59628433D01*
X142874031Y-59623223D01*
X142798546Y-59627948D01*
X142734935Y-59642124D01*
X142682351Y-59664782D01*
X142639943Y-59694952D01*
X142607593Y-59732633D01*
X142585178Y-59777827D01*
X142572092Y-59829321D01*
X142567730Y-59885905D01*
X142486955Y-59885905D01*
X142486955Y-59623223D01*
X142486955Y-59421284D01*
X143263045Y-59421284D01*
X143263045Y-59623223D01*
X143263045Y-59901414D01*
X143263045Y-60221284D01*
G37*
D12*
%TO.C,Q1*%
X138333000Y-68374500D02*
X138333000Y-67724500D01*
X138333000Y-68374500D02*
X138333000Y-69024500D01*
X141453000Y-68374500D02*
X141453000Y-67724500D01*
X141453000Y-68374500D02*
X141453000Y-69024500D01*
X141733000Y-67452000D02*
X141403000Y-67212000D01*
X141733000Y-66972000D01*
X141733000Y-67452000D01*
G36*
X141733000Y-67452000D02*
G01*
X141403000Y-67212000D01*
X141733000Y-66972000D01*
X141733000Y-67452000D01*
G37*
%TO.C,R4*%
X129332258Y-56881500D02*
X128857742Y-56881500D01*
X129332258Y-57926500D02*
X128857742Y-57926500D01*
%TO.C,C1*%
X132701420Y-66292000D02*
X132982580Y-66292000D01*
X132701420Y-67312000D02*
X132982580Y-67312000D01*
%TO.C,J1*%
X121701000Y-55432000D02*
X123401000Y-55432000D01*
X121701000Y-64772000D02*
X123401000Y-64772000D01*
%TO.C,C5*%
X135014580Y-51052000D02*
X134733420Y-51052000D01*
X135014580Y-52072000D02*
X134733420Y-52072000D01*
%TO.C,R6*%
X128867642Y-53822933D02*
X129342158Y-53822933D01*
X128867642Y-54867933D02*
X129342158Y-54867933D01*
%TO.C,R3*%
X129332258Y-55357500D02*
X128857742Y-55357500D01*
X129332258Y-56402500D02*
X128857742Y-56402500D01*
%TO.C,R1*%
X138032258Y-60056500D02*
X137557742Y-60056500D01*
X138032258Y-61101500D02*
X137557742Y-61101500D01*
D11*
%TO.C,kibuzzard-66B1E91A*%
G36*
X142831866Y-55692819D02*
G01*
X142849677Y-55728441D01*
X142855614Y-55781026D01*
X142855614Y-55807197D01*
X142675323Y-55807197D01*
X142672900Y-55787811D01*
X142672415Y-55771333D01*
X142677989Y-55728441D01*
X142694709Y-55694758D01*
X142723304Y-55672948D01*
X142764499Y-55665679D01*
X142831866Y-55692819D01*
G37*
G36*
X143268861Y-55191688D02*
G01*
X143268861Y-55504774D01*
X143268861Y-55926422D01*
X143268861Y-56128360D01*
X142481139Y-56128360D01*
X142481139Y-55926422D01*
X142481139Y-55771333D01*
X142568700Y-55771333D01*
X142569669Y-55805258D01*
X142572092Y-55845969D01*
X142576939Y-55888134D01*
X142584208Y-55926422D01*
X143175485Y-55926422D01*
X143175485Y-55807197D01*
X142954483Y-55807197D01*
X142954483Y-55745162D01*
X143009370Y-55712326D01*
X143063530Y-55681672D01*
X143118417Y-55653926D01*
X143175485Y-55629814D01*
X143175485Y-55504774D01*
X143111995Y-55532399D01*
X143045113Y-55565840D01*
X142981139Y-55601704D01*
X142925404Y-55636599D01*
X142898021Y-55594192D01*
X142860460Y-55565840D01*
X142815388Y-55549847D01*
X142765468Y-55544515D01*
X142718336Y-55548514D01*
X142677746Y-55560509D01*
X142616195Y-55606551D01*
X142595113Y-55639507D01*
X142580331Y-55678279D01*
X142571607Y-55722383D01*
X142568700Y-55771333D01*
X142481139Y-55771333D01*
X142481139Y-55033691D01*
X142575485Y-55033691D01*
X142575485Y-55469879D01*
X142674354Y-55469879D01*
X142674354Y-55311882D01*
X143175485Y-55311882D01*
X143175485Y-55191688D01*
X142674354Y-55191688D01*
X142674354Y-55033691D01*
X142575485Y-55033691D01*
X142481139Y-55033691D01*
X142481139Y-54756470D01*
X142561914Y-54756470D01*
X142567192Y-54815867D01*
X142583024Y-54866109D01*
X142609410Y-54907197D01*
X142666115Y-54948271D01*
X142741236Y-54961963D01*
X142812480Y-54946454D01*
X142860460Y-54907197D01*
X142892447Y-54854370D01*
X142914742Y-54798150D01*
X142931704Y-54757439D01*
X142952060Y-54720606D01*
X142977746Y-54693465D01*
X143010703Y-54682803D01*
X143039297Y-54687165D01*
X143064499Y-54703158D01*
X143081947Y-54734661D01*
X143088247Y-54784580D01*
X143084855Y-54832924D01*
X143074677Y-54873271D01*
X143045598Y-54935792D01*
X143142528Y-54970687D01*
X143172092Y-54903805D01*
X143184087Y-54851704D01*
X143188086Y-54784580D01*
X143182970Y-54716567D01*
X143167623Y-54661155D01*
X143142044Y-54618344D01*
X143086430Y-54577270D01*
X143011672Y-54563578D01*
X142966478Y-54567698D01*
X142929766Y-54580057D01*
X142875485Y-54622221D01*
X142840590Y-54678441D01*
X142816842Y-54737084D01*
X142802302Y-54774402D01*
X142784370Y-54808328D01*
X142761107Y-54833045D01*
X142730574Y-54842738D01*
X142692340Y-54832184D01*
X142669400Y-54800520D01*
X142661753Y-54747746D01*
X142671446Y-54679410D01*
X142694709Y-54625614D01*
X142602625Y-54590719D01*
X142574515Y-54660024D01*
X142565065Y-54704733D01*
X142561914Y-54756470D01*
X142481139Y-54756470D01*
X142481139Y-54563578D01*
X142481139Y-54361640D01*
X143268861Y-54361640D01*
X143268861Y-54563578D01*
X143268861Y-54784580D01*
X143268861Y-55191688D01*
G37*
D12*
%TO.C,U1*%
X131128000Y-61753000D02*
X131128000Y-61518000D01*
X131128000Y-65498000D02*
X131128000Y-65023000D01*
X131603000Y-61278000D02*
X131428000Y-61278000D01*
X131603000Y-65498000D02*
X131128000Y-65498000D01*
X134873000Y-61278000D02*
X135348000Y-61278000D01*
X134873000Y-65498000D02*
X135348000Y-65498000D01*
X135348000Y-61278000D02*
X135348000Y-61753000D01*
X135348000Y-65498000D02*
X135348000Y-65023000D01*
X131128000Y-61278000D02*
X130888000Y-60948000D01*
X131368000Y-60948000D01*
X131128000Y-61278000D01*
G36*
X131128000Y-61278000D02*
G01*
X130888000Y-60948000D01*
X131368000Y-60948000D01*
X131128000Y-61278000D01*
G37*
%TO.C,C4*%
X139190000Y-53099580D02*
X139190000Y-52818420D01*
X140210000Y-53099580D02*
X140210000Y-52818420D01*
%TO.C,R5*%
X128856426Y-52280812D02*
X129330942Y-52280812D01*
X128856426Y-53325812D02*
X129330942Y-53325812D01*
%TO.C,C8*%
X143433748Y-51160000D02*
X144856252Y-51160000D01*
X143433748Y-52980000D02*
X144856252Y-52980000D01*
%TO.C,C6*%
X125526748Y-66146000D02*
X126949252Y-66146000D01*
X125526748Y-67966000D02*
X126949252Y-67966000D01*
%TO.C,C2*%
X136396000Y-64375420D02*
X136396000Y-64656580D01*
X137416000Y-64375420D02*
X137416000Y-64656580D01*
%TO.C,Q2*%
X138333000Y-64437500D02*
X138333000Y-63787500D01*
X138333000Y-64437500D02*
X138333000Y-65087500D01*
X141453000Y-64437500D02*
X141453000Y-63787500D01*
X141453000Y-64437500D02*
X141453000Y-65087500D01*
X141733000Y-63515000D02*
X141403000Y-63275000D01*
X141733000Y-63035000D01*
X141733000Y-63515000D01*
G36*
X141733000Y-63515000D02*
G01*
X141403000Y-63275000D01*
X141733000Y-63035000D01*
X141733000Y-63515000D01*
G37*
%TO.C,C7*%
X145491252Y-67670000D02*
X144068748Y-67670000D01*
X145491252Y-69490000D02*
X144068748Y-69490000D01*
%TO.C,R8*%
X139177500Y-56307258D02*
X139177500Y-55832742D01*
X140222500Y-56307258D02*
X140222500Y-55832742D01*
%TO.C,C3*%
X129284000Y-65391420D02*
X129284000Y-65672580D01*
X130304000Y-65391420D02*
X130304000Y-65672580D01*
D13*
%TO.C,U2*%
X133094000Y-52538000D02*
X136644000Y-52538000D01*
X133094000Y-57698000D02*
X133094000Y-52538000D01*
X136644000Y-52538000D02*
X136644000Y-57698000D01*
X136644000Y-57698000D02*
X133094000Y-57698000D01*
D14*
X132154000Y-52218000D02*
G75*
G02*
X131854000Y-52218000I-150000J0D01*
G01*
X131854000Y-52218000D02*
G75*
G02*
X132154000Y-52218000I150000J0D01*
G01*
X134004000Y-52838000D02*
G75*
G02*
X133704000Y-52838000I-150000J0D01*
G01*
X133704000Y-52838000D02*
G75*
G02*
X134004000Y-52838000I150000J0D01*
G01*
D12*
%TO.C,R7*%
X140822890Y-56323183D02*
X140822890Y-55848667D01*
X141867890Y-56323183D02*
X141867890Y-55848667D01*
%TO.C,J2*%
X143527000Y-54298000D02*
X145097000Y-54298000D01*
X143527000Y-55118000D02*
X143527000Y-54298000D01*
X146667000Y-54678000D02*
X148777000Y-54678000D01*
X146667000Y-55558000D02*
X148777000Y-55558000D01*
X146667000Y-57218000D02*
X148777000Y-57218000D01*
X146667000Y-58098000D02*
X148777000Y-58098000D01*
X146667000Y-59758000D02*
X148777000Y-59758000D01*
X146667000Y-60638000D02*
X148777000Y-60638000D01*
X146667000Y-62298000D02*
X148777000Y-62298000D01*
X146667000Y-63178000D02*
X148777000Y-63178000D01*
X146667000Y-64838000D02*
X148777000Y-64838000D01*
X146667000Y-65718000D02*
X148777000Y-65718000D01*
X148777000Y-53728000D02*
X151517000Y-53728000D01*
X148777000Y-66668000D02*
X148777000Y-53728000D01*
X151517000Y-53728000D02*
X151517000Y-66668000D01*
X151517000Y-54678000D02*
X157517000Y-54678000D01*
X151517000Y-57218000D02*
X157517000Y-57218000D01*
X151517000Y-59758000D02*
X157517000Y-59758000D01*
X151517000Y-62298000D02*
X157517000Y-62298000D01*
X151517000Y-64838000D02*
X157517000Y-64838000D01*
X151517000Y-66668000D02*
X148777000Y-66668000D01*
X157517000Y-54678000D02*
X157517000Y-55558000D01*
X157517000Y-55558000D02*
X151517000Y-55558000D01*
X157517000Y-57218000D02*
X157517000Y-58098000D01*
X157517000Y-58098000D02*
X151517000Y-58098000D01*
X157517000Y-59758000D02*
X157517000Y-60638000D01*
X157517000Y-60638000D02*
X151517000Y-60638000D01*
X157517000Y-62298000D02*
X157517000Y-63178000D01*
X157517000Y-63178000D02*
X151517000Y-63178000D01*
X157517000Y-64838000D02*
X157517000Y-65718000D01*
X157517000Y-65718000D02*
X151517000Y-65718000D01*
D11*
%TO.C,kibuzzard-66B1E90B*%
G36*
X142830897Y-58239120D02*
G01*
X142848708Y-58274742D01*
X142854645Y-58327326D01*
X142854645Y-58353498D01*
X142674354Y-58353498D01*
X142671931Y-58334111D01*
X142671446Y-58317633D01*
X142677019Y-58274742D01*
X142693740Y-58241058D01*
X142722334Y-58219249D01*
X142763530Y-58211979D01*
X142830897Y-58239120D01*
G37*
G36*
X142916801Y-57220258D02*
G01*
X142955937Y-57225711D01*
X143020396Y-57249943D01*
X143063045Y-57294532D01*
X143078554Y-57362868D01*
X143078554Y-57373530D01*
X143077585Y-57384192D01*
X142674354Y-57384192D01*
X142671931Y-57366745D01*
X142671446Y-57349297D01*
X142688409Y-57284354D01*
X142733481Y-57244612D01*
X142798425Y-57224257D01*
X142874031Y-57218441D01*
X142916801Y-57220258D01*
G37*
G36*
X143263045Y-57695339D02*
G01*
X143263045Y-58051074D01*
X143263045Y-58472722D01*
X143263045Y-58674661D01*
X142486955Y-58674661D01*
X142486955Y-58472722D01*
X142486955Y-58317633D01*
X142567730Y-58317633D01*
X142568700Y-58351559D01*
X142571123Y-58392270D01*
X142575969Y-58434435D01*
X142583239Y-58472722D01*
X143174515Y-58472722D01*
X143174515Y-58353498D01*
X142953514Y-58353498D01*
X142953514Y-58291462D01*
X143008401Y-58258627D01*
X143062561Y-58227973D01*
X143117447Y-58200226D01*
X143174515Y-58176115D01*
X143174515Y-58051074D01*
X143111026Y-58078700D01*
X143044144Y-58112141D01*
X142980170Y-58148005D01*
X142924435Y-58182900D01*
X142897052Y-58140493D01*
X142859491Y-58112141D01*
X142814418Y-58096147D01*
X142764499Y-58090816D01*
X142717367Y-58094814D01*
X142676777Y-58106809D01*
X142615226Y-58152851D01*
X142594144Y-58185808D01*
X142579362Y-58224580D01*
X142570638Y-58268683D01*
X142567730Y-58317633D01*
X142486955Y-58317633D01*
X142486955Y-57576115D01*
X142574515Y-57576115D01*
X142574515Y-57696309D01*
X142766438Y-57796147D01*
X142574515Y-57891139D01*
X142574515Y-58020057D01*
X142857553Y-57863029D01*
X142900081Y-57886777D01*
X142944305Y-57911494D01*
X142988772Y-57936090D01*
X143032027Y-57959475D01*
X143073223Y-57981284D01*
X143111511Y-58001155D01*
X143174515Y-58029750D01*
X143174515Y-57900832D01*
X143122052Y-57878538D01*
X143063530Y-57852367D01*
X143003069Y-57824257D01*
X142944790Y-57796147D01*
X143004887Y-57767674D01*
X143064984Y-57740412D01*
X143122415Y-57715816D01*
X143174515Y-57695339D01*
X143174515Y-57566422D01*
X143111026Y-57592593D01*
X143072254Y-57610404D01*
X143030574Y-57630880D01*
X142986834Y-57653538D01*
X142941882Y-57677892D01*
X142897294Y-57703336D01*
X142854645Y-57729265D01*
X142574515Y-57576115D01*
X142486955Y-57576115D01*
X142486955Y-57359960D01*
X142567730Y-57359960D01*
X142570638Y-57426842D01*
X142582270Y-57503417D01*
X143167730Y-57503417D01*
X143178877Y-57437989D01*
X143182270Y-57375468D01*
X143178029Y-57316947D01*
X143165307Y-57263514D01*
X143143376Y-57216139D01*
X143111511Y-57175792D01*
X143069225Y-57142956D01*
X143016034Y-57118118D01*
X142951212Y-57102488D01*
X142874031Y-57097278D01*
X142798546Y-57102003D01*
X142734935Y-57116179D01*
X142682351Y-57138837D01*
X142639943Y-57169006D01*
X142607593Y-57206688D01*
X142585178Y-57251882D01*
X142572092Y-57303376D01*
X142567730Y-57359960D01*
X142486955Y-57359960D01*
X142486955Y-57097278D01*
X142486955Y-56895339D01*
X143263045Y-56895339D01*
X143263045Y-57097278D01*
X143263045Y-57375468D01*
X143263045Y-57695339D01*
G37*
D12*
%TO.C,R2*%
X141271258Y-60183500D02*
X140796742Y-60183500D01*
X141271258Y-61228500D02*
X140796742Y-61228500D01*
D11*
%TO.C,kibuzzard-66B1E959*%
G36*
X142830897Y-62357569D02*
G01*
X142848708Y-62393191D01*
X142854645Y-62445775D01*
X142854645Y-62471947D01*
X142674354Y-62471947D01*
X142671931Y-62452561D01*
X142671446Y-62436082D01*
X142677019Y-62393191D01*
X142693740Y-62359507D01*
X142722334Y-62337698D01*
X142763530Y-62330428D01*
X142830897Y-62357569D01*
G37*
G36*
X142916801Y-63277318D02*
G01*
X142955937Y-63282771D01*
X143020396Y-63307003D01*
X143063045Y-63351591D01*
X143078554Y-63419927D01*
X143078554Y-63430590D01*
X143077585Y-63441252D01*
X142674354Y-63441252D01*
X142671931Y-63423805D01*
X142671446Y-63406357D01*
X142688409Y-63341414D01*
X142733481Y-63301672D01*
X142798425Y-63281317D01*
X142874031Y-63275501D01*
X142916801Y-63277318D01*
G37*
G36*
X143263045Y-62825743D02*
G01*
X143263045Y-63432528D01*
X143263045Y-63560477D01*
X143263045Y-63762415D01*
X142486955Y-63762415D01*
X142486955Y-63560477D01*
X142486955Y-63417019D01*
X142567730Y-63417019D01*
X142570638Y-63483901D01*
X142582270Y-63560477D01*
X143167730Y-63560477D01*
X143178877Y-63495048D01*
X143182270Y-63432528D01*
X143178029Y-63374006D01*
X143165307Y-63320574D01*
X143143376Y-63273199D01*
X143111511Y-63232851D01*
X143069225Y-63200016D01*
X143016034Y-63175178D01*
X142951212Y-63159548D01*
X142874031Y-63154338D01*
X142798546Y-63159063D01*
X142734935Y-63173239D01*
X142682351Y-63195897D01*
X142639943Y-63226066D01*
X142607593Y-63263748D01*
X142585178Y-63308942D01*
X142572092Y-63360436D01*
X142567730Y-63417019D01*
X142486955Y-63417019D01*
X142486955Y-62667746D01*
X142574515Y-62667746D01*
X142574515Y-63103934D01*
X142673384Y-63103934D01*
X142673384Y-62945937D01*
X143174515Y-62945937D01*
X143174515Y-62825743D01*
X142673384Y-62825743D01*
X142673384Y-62667746D01*
X142574515Y-62667746D01*
X142486955Y-62667746D01*
X142486955Y-62436082D01*
X142567730Y-62436082D01*
X142568700Y-62470008D01*
X142571123Y-62510719D01*
X142575969Y-62552884D01*
X142583239Y-62591171D01*
X143174515Y-62591171D01*
X143174515Y-62471947D01*
X142953514Y-62471947D01*
X142953514Y-62409911D01*
X143008401Y-62377076D01*
X143062561Y-62346422D01*
X143117447Y-62318675D01*
X143174515Y-62294564D01*
X143174515Y-62169523D01*
X143111026Y-62197149D01*
X143044144Y-62230590D01*
X142980170Y-62266454D01*
X142924435Y-62301349D01*
X142897052Y-62258942D01*
X142859491Y-62230590D01*
X142814418Y-62214596D01*
X142764499Y-62209265D01*
X142717367Y-62213263D01*
X142676777Y-62225258D01*
X142615226Y-62271300D01*
X142594144Y-62304257D01*
X142579362Y-62343029D01*
X142570638Y-62387132D01*
X142567730Y-62436082D01*
X142486955Y-62436082D01*
X142486955Y-62169523D01*
X142486955Y-61967585D01*
X143263045Y-61967585D01*
X143263045Y-62169523D01*
X143263045Y-62825743D01*
G37*
%TD*%
D15*
%TO.C,J2*%
X154517000Y-55118000D03*
%TD*%
%LPC*%
D16*
%TO.C,Q1*%
X140843000Y-67437000D03*
X138943000Y-67437000D03*
X139893000Y-69312000D03*
%TD*%
D17*
%TO.C,R4*%
X129920000Y-57404000D03*
X128270000Y-57404000D03*
%TD*%
D18*
%TO.C,C1*%
X132067000Y-66802000D03*
X133617000Y-66802000D03*
%TD*%
D19*
%TO.C,J1*%
X124206000Y-57212000D03*
X124206000Y-62992000D03*
D20*
X125281000Y-56902000D03*
X125281000Y-57702000D03*
D21*
X125281000Y-58852000D03*
X125281000Y-59852000D03*
X125281000Y-60352000D03*
X125281000Y-61352000D03*
D20*
X125281000Y-62502000D03*
X125281000Y-63302000D03*
X125281000Y-63302000D03*
X125281000Y-62502000D03*
D21*
X125281000Y-61852000D03*
X125281000Y-60852000D03*
X125281000Y-59352000D03*
X125281000Y-58352000D03*
D20*
X125281000Y-57702000D03*
X125281000Y-56902000D03*
D22*
X124706000Y-55782000D03*
D23*
X120526000Y-55782000D03*
D22*
X124706000Y-64422000D03*
D23*
X120526000Y-64422000D03*
%TD*%
D24*
%TO.C,C5*%
X135649000Y-51562000D03*
X134099000Y-51562000D03*
%TD*%
D25*
%TO.C,R6*%
X128279900Y-54345433D03*
X129929900Y-54345433D03*
%TD*%
D17*
%TO.C,R3*%
X129920000Y-55880000D03*
X128270000Y-55880000D03*
%TD*%
%TO.C,R1*%
X138620000Y-60579000D03*
X136970000Y-60579000D03*
%TD*%
D26*
%TO.C,U1*%
X131300500Y-62138000D03*
X131300500Y-62638000D03*
X131300500Y-63138000D03*
X131300500Y-63638000D03*
X131300500Y-64138000D03*
X131300500Y-64638000D03*
D27*
X131988000Y-65325500D03*
X132488000Y-65325500D03*
X132988000Y-65325500D03*
X133488000Y-65325500D03*
X133988000Y-65325500D03*
X134488000Y-65325500D03*
D26*
X135175500Y-64638000D03*
X135175500Y-64138000D03*
X135175500Y-63638000D03*
X135175500Y-63138000D03*
X135175500Y-62638000D03*
X135175500Y-62138000D03*
D27*
X134488000Y-61450500D03*
X133988000Y-61450500D03*
X133488000Y-61450500D03*
X132988000Y-61450500D03*
X132488000Y-61450500D03*
X131988000Y-61450500D03*
D28*
X133238000Y-63388000D03*
%TD*%
D29*
%TO.C,C4*%
X139700000Y-53734000D03*
X139700000Y-52184000D03*
%TD*%
D25*
%TO.C,R5*%
X128268684Y-52803312D03*
X129918684Y-52803312D03*
%TD*%
D30*
%TO.C,C8*%
X142670000Y-52070000D03*
X145620000Y-52070000D03*
%TD*%
%TO.C,C6*%
X124763000Y-67056000D03*
X127713000Y-67056000D03*
%TD*%
D31*
%TO.C,C2*%
X136906000Y-63741000D03*
X136906000Y-65291000D03*
%TD*%
D16*
%TO.C,Q2*%
X140843000Y-63500000D03*
X138943000Y-63500000D03*
X139893000Y-65375000D03*
%TD*%
D32*
%TO.C,C7*%
X146255000Y-68580000D03*
X143305000Y-68580000D03*
%TD*%
D33*
%TO.C,R8*%
X139700000Y-56895000D03*
X139700000Y-55245000D03*
%TD*%
D31*
%TO.C,C3*%
X129794000Y-64757000D03*
X129794000Y-66307000D03*
%TD*%
D34*
%TO.C,U2*%
X132004000Y-52838000D03*
X132004000Y-53488000D03*
X132004000Y-54138000D03*
X132004000Y-54798000D03*
X132004000Y-55448000D03*
X132004000Y-56098000D03*
X132004000Y-56748000D03*
X132004000Y-57398000D03*
X137744000Y-57398000D03*
X137744000Y-56748000D03*
X137744000Y-56098000D03*
X137744000Y-55448000D03*
X137744000Y-54798000D03*
X137744000Y-54138000D03*
X137744000Y-53488000D03*
X137744000Y-52838000D03*
%TD*%
D33*
%TO.C,R7*%
X141345390Y-56910925D03*
X141345390Y-55260925D03*
%TD*%
D35*
%TO.C,J2*%
X145097000Y-55118000D03*
X145097000Y-57658000D03*
X145097000Y-60198000D03*
X145097000Y-62738000D03*
X145097000Y-65278000D03*
%TD*%
D17*
%TO.C,R2*%
X141859000Y-60706000D03*
X140209000Y-60706000D03*
%TD*%
%LPD*%
M02*
