%TF.GenerationSoftware,KiCad,Pcbnew,8.0.4*%
%TF.CreationDate,2024-08-06T21:58:01+07:00*%
%TF.ProjectId,cp2104-pd-source-v01,63703231-3034-42d7-9064-2d736f757263,rev?*%
%TF.SameCoordinates,Original*%
%TF.FileFunction,Copper,L1,Top*%
%TF.FilePolarity,Positive*%
%FSLAX46Y46*%
G04 Gerber Fmt 4.6, Leading zero omitted, Abs format (unit mm)*
G04 Created by KiCad (PCBNEW 8.0.4) date 2024-08-06 21:58:01*
%MOMM*%
%LPD*%
G01*
G04 APERTURE LIST*
G04 Aperture macros list*
%AMRoundRect*
0 Rectangle with rounded corners*
0 $1 Rounding radius*
0 $2 $3 $4 $5 $6 $7 $8 $9 X,Y pos of 4 corners*
0 Add a 4 corners polygon primitive as box body*
4,1,4,$2,$3,$4,$5,$6,$7,$8,$9,$2,$3,0*
0 Add four circle primitives for the rounded corners*
1,1,$1+$1,$2,$3*
1,1,$1+$1,$4,$5*
1,1,$1+$1,$6,$7*
1,1,$1+$1,$8,$9*
0 Add four rect primitives between the rounded corners*
20,1,$1+$1,$2,$3,$4,$5,0*
20,1,$1+$1,$4,$5,$6,$7,0*
20,1,$1+$1,$6,$7,$8,$9,0*
20,1,$1+$1,$8,$9,$2,$3,0*%
G04 Aperture macros list end*
%TA.AperFunction,SMDPad,CuDef*%
%ADD10RoundRect,0.150000X-0.150000X0.587500X-0.150000X-0.587500X0.150000X-0.587500X0.150000X0.587500X0*%
%TD*%
%TA.AperFunction,SMDPad,CuDef*%
%ADD11RoundRect,0.200000X0.200000X0.275000X-0.200000X0.275000X-0.200000X-0.275000X0.200000X-0.275000X0*%
%TD*%
%TA.AperFunction,SMDPad,CuDef*%
%ADD12RoundRect,0.225000X-0.225000X-0.250000X0.225000X-0.250000X0.225000X0.250000X-0.225000X0.250000X0*%
%TD*%
%TA.AperFunction,SMDPad,CuDef*%
%ADD13RoundRect,0.150000X-0.425000X0.150000X-0.425000X-0.150000X0.425000X-0.150000X0.425000X0.150000X0*%
%TD*%
%TA.AperFunction,SMDPad,CuDef*%
%ADD14RoundRect,0.075000X-0.500000X0.075000X-0.500000X-0.075000X0.500000X-0.075000X0.500000X0.075000X0*%
%TD*%
%TA.AperFunction,ComponentPad*%
%ADD15O,2.100000X1.000000*%
%TD*%
%TA.AperFunction,ComponentPad*%
%ADD16O,1.800000X1.000000*%
%TD*%
%TA.AperFunction,SMDPad,CuDef*%
%ADD17RoundRect,0.225000X0.225000X0.250000X-0.225000X0.250000X-0.225000X-0.250000X0.225000X-0.250000X0*%
%TD*%
%TA.AperFunction,SMDPad,CuDef*%
%ADD18RoundRect,0.200000X-0.200000X-0.275000X0.200000X-0.275000X0.200000X0.275000X-0.200000X0.275000X0*%
%TD*%
%TA.AperFunction,SMDPad,CuDef*%
%ADD19RoundRect,0.062500X-0.350000X-0.062500X0.350000X-0.062500X0.350000X0.062500X-0.350000X0.062500X0*%
%TD*%
%TA.AperFunction,SMDPad,CuDef*%
%ADD20RoundRect,0.062500X-0.062500X-0.350000X0.062500X-0.350000X0.062500X0.350000X-0.062500X0.350000X0*%
%TD*%
%TA.AperFunction,HeatsinkPad*%
%ADD21R,2.600000X2.600000*%
%TD*%
%TA.AperFunction,SMDPad,CuDef*%
%ADD22RoundRect,0.225000X0.250000X-0.225000X0.250000X0.225000X-0.250000X0.225000X-0.250000X-0.225000X0*%
%TD*%
%TA.AperFunction,SMDPad,CuDef*%
%ADD23RoundRect,0.250000X-0.325000X-0.650000X0.325000X-0.650000X0.325000X0.650000X-0.325000X0.650000X0*%
%TD*%
%TA.AperFunction,SMDPad,CuDef*%
%ADD24RoundRect,0.225000X-0.250000X0.225000X-0.250000X-0.225000X0.250000X-0.225000X0.250000X0.225000X0*%
%TD*%
%TA.AperFunction,SMDPad,CuDef*%
%ADD25RoundRect,0.250000X0.325000X0.650000X-0.325000X0.650000X-0.325000X-0.650000X0.325000X-0.650000X0*%
%TD*%
%TA.AperFunction,SMDPad,CuDef*%
%ADD26RoundRect,0.200000X0.275000X-0.200000X0.275000X0.200000X-0.275000X0.200000X-0.275000X-0.200000X0*%
%TD*%
%TA.AperFunction,SMDPad,CuDef*%
%ADD27O,1.730000X0.340000*%
%TD*%
%TA.AperFunction,SMDPad,CuDef*%
%ADD28R,2.500000X1.000000*%
%TD*%
%TA.AperFunction,ViaPad*%
%ADD29C,0.600000*%
%TD*%
%TA.AperFunction,Conductor*%
%ADD30C,0.508000*%
%TD*%
%TA.AperFunction,Conductor*%
%ADD31C,0.254000*%
%TD*%
%TA.AperFunction,Conductor*%
%ADD32C,0.200000*%
%TD*%
%TA.AperFunction,Conductor*%
%ADD33C,0.250000*%
%TD*%
G04 APERTURE END LIST*
D10*
%TO.P,Q1,1,G*%
%TO.N,VBUS_EN*%
X140843000Y-67437000D03*
%TO.P,Q1,2,S*%
%TO.N,+5V*%
X138943000Y-67437000D03*
%TO.P,Q1,3,D*%
%TO.N,VBUS*%
X139893000Y-69312000D03*
%TD*%
D11*
%TO.P,R4,1*%
%TO.N,Net-(U2-C0CC1)*%
X129920000Y-57404000D03*
%TO.P,R4,2*%
%TO.N,CC1*%
X128270000Y-57404000D03*
%TD*%
D12*
%TO.P,C1,1*%
%TO.N,+5V*%
X132067000Y-66802000D03*
%TO.P,C1,2*%
%TO.N,GND*%
X133617000Y-66802000D03*
%TD*%
D13*
%TO.P,J1,A1,GND*%
%TO.N,GND*%
X125281000Y-56902000D03*
%TO.P,J1,A4,VBUS*%
%TO.N,VBUS*%
X125281000Y-57702000D03*
D14*
%TO.P,J1,A5,CC1*%
%TO.N,CC1*%
X125281000Y-58852000D03*
%TO.P,J1,A6,D+*%
%TO.N,D+*%
X125281000Y-59852000D03*
%TO.P,J1,A7,D-*%
%TO.N,D-*%
X125281000Y-60352000D03*
%TO.P,J1,A8,SBU1*%
%TO.N,unconnected-(J1-SBU1-PadA8)*%
X125281000Y-61352000D03*
D13*
%TO.P,J1,A9,VBUS*%
%TO.N,VBUS*%
X125281000Y-62502000D03*
%TO.P,J1,A12,GND*%
%TO.N,GND*%
X125281000Y-63302000D03*
%TO.P,J1,B1,GND*%
X125281000Y-63302000D03*
%TO.P,J1,B4,VBUS*%
%TO.N,VBUS*%
X125281000Y-62502000D03*
D14*
%TO.P,J1,B5,CC2*%
%TO.N,CC2*%
X125281000Y-61852000D03*
%TO.P,J1,B6,D+*%
%TO.N,D+*%
X125281000Y-60852000D03*
%TO.P,J1,B7,D-*%
%TO.N,D-*%
X125281000Y-59352000D03*
%TO.P,J1,B8,SBU2*%
%TO.N,unconnected-(J1-SBU2-PadB8)*%
X125281000Y-58352000D03*
D13*
%TO.P,J1,B9,VBUS*%
%TO.N,VBUS*%
X125281000Y-57702000D03*
%TO.P,J1,B12,GND*%
%TO.N,GND*%
X125281000Y-56902000D03*
D15*
%TO.P,J1,S1,SHIELD*%
X124706000Y-55782000D03*
D16*
X120526000Y-55782000D03*
D15*
X124706000Y-64422000D03*
D16*
X120526000Y-64422000D03*
%TD*%
D17*
%TO.P,C5,1*%
%TO.N,+5V*%
X135649000Y-51562000D03*
%TO.P,C5,2*%
%TO.N,GND*%
X134099000Y-51562000D03*
%TD*%
D18*
%TO.P,R6,1*%
%TO.N,+5V*%
X128279900Y-54345433D03*
%TO.P,R6,2*%
%TO.N,VADP_EN*%
X129929900Y-54345433D03*
%TD*%
D11*
%TO.P,R3,1*%
%TO.N,Net-(U2-C0CC2)*%
X129920000Y-55880000D03*
%TO.P,R3,2*%
%TO.N,CC2*%
X128270000Y-55880000D03*
%TD*%
%TO.P,R1,1*%
%TO.N,RXD0*%
X138620000Y-60579000D03*
%TO.P,R1,2*%
%TO.N,Net-(U1-TXD)*%
X136970000Y-60579000D03*
%TD*%
D19*
%TO.P,U1,1,~{RI}*%
%TO.N,unconnected-(U1-~{RI}-Pad1)*%
X131300500Y-62138000D03*
%TO.P,U1,2,GND*%
%TO.N,GND*%
X131300500Y-62638000D03*
%TO.P,U1,3,D+*%
%TO.N,D+*%
X131300500Y-63138000D03*
%TO.P,U1,4,D-*%
%TO.N,D-*%
X131300500Y-63638000D03*
%TO.P,U1,5,VIO*%
%TO.N,Net-(U1-VDD)*%
X131300500Y-64138000D03*
%TO.P,U1,6,VDD*%
X131300500Y-64638000D03*
D20*
%TO.P,U1,7,REGIN*%
%TO.N,+5V*%
X131988000Y-65325500D03*
%TO.P,U1,8,VBUS*%
X132488000Y-65325500D03*
%TO.P,U1,9,~{RST}*%
%TO.N,unconnected-(U1-~{RST}-Pad9)*%
X132988000Y-65325500D03*
%TO.P,U1,10,NC*%
%TO.N,unconnected-(U1-NC-Pad10)*%
X133488000Y-65325500D03*
%TO.P,U1,11,GPIO.3*%
%TO.N,unconnected-(U1-GPIO.3-Pad11)*%
X133988000Y-65325500D03*
%TO.P,U1,12,RS485/GPIO.2*%
%TO.N,unconnected-(U1-RS485{slash}GPIO.2-Pad12)*%
X134488000Y-65325500D03*
D19*
%TO.P,U1,13,RXT/GPIO.1*%
%TO.N,unconnected-(U1-RXT{slash}GPIO.1-Pad13)*%
X135175500Y-64638000D03*
%TO.P,U1,14,TXT/GPIO.0*%
%TO.N,unconnected-(U1-TXT{slash}GPIO.0-Pad14)*%
X135175500Y-64138000D03*
%TO.P,U1,15,~{SUSPEND}*%
%TO.N,unconnected-(U1-~{SUSPEND}-Pad15)*%
X135175500Y-63638000D03*
%TO.P,U1,16,VPP*%
%TO.N,Net-(U1-VPP)*%
X135175500Y-63138000D03*
%TO.P,U1,17,SUSPEND*%
%TO.N,unconnected-(U1-SUSPEND-Pad17)*%
X135175500Y-62638000D03*
%TO.P,U1,18,~{CTS}*%
%TO.N,CTS*%
X135175500Y-62138000D03*
D20*
%TO.P,U1,19,~{RTS}*%
%TO.N,DTR*%
X134488000Y-61450500D03*
%TO.P,U1,20,RXD*%
%TO.N,Net-(U1-RXD)*%
X133988000Y-61450500D03*
%TO.P,U1,21,TXD*%
%TO.N,Net-(U1-TXD)*%
X133488000Y-61450500D03*
%TO.P,U1,22,~{DSR}*%
%TO.N,DSR*%
X132988000Y-61450500D03*
%TO.P,U1,23,~{DTR}*%
%TO.N,RTS*%
X132488000Y-61450500D03*
%TO.P,U1,24,~{DCD}*%
%TO.N,unconnected-(U1-~{DCD}-Pad24)*%
X131988000Y-61450500D03*
D21*
%TO.P,U1,25,GND*%
%TO.N,GND*%
X133238000Y-63388000D03*
%TD*%
D22*
%TO.P,C4,1*%
%TO.N,Net-(U2-PDLDO)*%
X139700000Y-53734000D03*
%TO.P,C4,2*%
%TO.N,GND*%
X139700000Y-52184000D03*
%TD*%
D18*
%TO.P,R5,1*%
%TO.N,+5V*%
X128268684Y-52803312D03*
%TO.P,R5,2*%
%TO.N,VBUS_EN*%
X129918684Y-52803312D03*
%TD*%
D23*
%TO.P,C8,1*%
%TO.N,+5V*%
X142670000Y-52070000D03*
%TO.P,C8,2*%
%TO.N,GND*%
X145620000Y-52070000D03*
%TD*%
%TO.P,C6,1*%
%TO.N,VBUS*%
X124763000Y-67056000D03*
%TO.P,C6,2*%
%TO.N,GND*%
X127713000Y-67056000D03*
%TD*%
D24*
%TO.P,C2,1*%
%TO.N,Net-(U1-VPP)*%
X136906000Y-63741000D03*
%TO.P,C2,2*%
%TO.N,GND*%
X136906000Y-65291000D03*
%TD*%
D10*
%TO.P,Q2,1,G*%
%TO.N,VADP_EN*%
X140843000Y-63500000D03*
%TO.P,Q2,2,S*%
%TO.N,+5V*%
X138943000Y-63500000D03*
%TO.P,Q2,3,D*%
%TO.N,+5V_IN*%
X139893000Y-65375000D03*
%TD*%
D25*
%TO.P,C7,1*%
%TO.N,+5V_IN*%
X146255000Y-68580000D03*
%TO.P,C7,2*%
%TO.N,GND*%
X143305000Y-68580000D03*
%TD*%
D26*
%TO.P,R8,1*%
%TO.N,C1_VBUS_DET*%
X139700000Y-56895000D03*
%TO.P,R8,2*%
%TO.N,GND*%
X139700000Y-55245000D03*
%TD*%
D24*
%TO.P,C3,1*%
%TO.N,Net-(U1-VDD)*%
X129794000Y-64757000D03*
%TO.P,C3,2*%
%TO.N,GND*%
X129794000Y-66307000D03*
%TD*%
D27*
%TO.P,U2,1,VSS*%
%TO.N,GND*%
X132004000Y-52838000D03*
%TO.P,U2,2,VBEN*%
%TO.N,VBUS_EN*%
X132004000Y-53488000D03*
%TO.P,U2,3,AnaDet*%
%TO.N,unconnected-(U2-AnaDet-Pad3)*%
X132004000Y-54138000D03*
%TO.P,U2,4,Vlimited*%
%TO.N,unconnected-(U2-Vlimited-Pad4)*%
X132004000Y-54798000D03*
%TO.P,U2,5,VadpEN*%
%TO.N,VADP_EN*%
X132004000Y-55448000D03*
%TO.P,U2,6,ResetOut*%
%TO.N,unconnected-(U2-ResetOut-Pad6)*%
X132004000Y-56098000D03*
%TO.P,U2,7,C0CC2*%
%TO.N,Net-(U2-C0CC2)*%
X132004000Y-56748000D03*
%TO.P,U2,8,C0CC1*%
%TO.N,Net-(U2-C0CC1)*%
X132004000Y-57398000D03*
%TO.P,U2,9,EN_D+*%
%TO.N,unconnected-(U2-EN_D+-Pad9)*%
X137744000Y-57398000D03*
%TO.P,U2,10,ADC_D-*%
%TO.N,unconnected-(U2-ADC_D--Pad10)*%
X137744000Y-56748000D03*
%TO.P,U2,11,C1DT*%
%TO.N,C1_VBUS_DET*%
X137744000Y-56098000D03*
%TO.P,U2,12,C1CC2*%
%TO.N,unconnected-(U2-C1CC2-Pad12)*%
X137744000Y-55448000D03*
%TO.P,U2,13,C1CC1*%
%TO.N,unconnected-(U2-C1CC1-Pad13)*%
X137744000Y-54798000D03*
%TO.P,U2,14,POL*%
%TO.N,unconnected-(U2-POL-Pad14)*%
X137744000Y-54138000D03*
%TO.P,U2,15,PDLDO*%
%TO.N,Net-(U2-PDLDO)*%
X137744000Y-53488000D03*
%TO.P,U2,16,VDD*%
%TO.N,+5V*%
X137744000Y-52838000D03*
%TD*%
D26*
%TO.P,R7,1*%
%TO.N,+5V_IN*%
X141345390Y-56910925D03*
%TO.P,R7,2*%
%TO.N,C1_VBUS_DET*%
X141345390Y-55260925D03*
%TD*%
D28*
%TO.P,J2,1,Pin_1*%
%TO.N,RTS*%
X145097000Y-55118000D03*
%TO.P,J2,2,Pin_2*%
%TO.N,RXD0*%
X145097000Y-57658000D03*
%TO.P,J2,3,Pin_3*%
%TO.N,TXD0*%
X145097000Y-60198000D03*
%TO.P,J2,4,Pin_4*%
%TO.N,DTR*%
X145097000Y-62738000D03*
%TO.P,J2,5,Pin_5*%
%TO.N,GND*%
X145097000Y-65278000D03*
%TD*%
D11*
%TO.P,R2,1*%
%TO.N,TXD0*%
X141859000Y-60706000D03*
%TO.P,R2,2*%
%TO.N,Net-(U1-RXD)*%
X140209000Y-60706000D03*
%TD*%
D29*
%TO.N,+5V*%
X138943000Y-66299000D03*
X138943000Y-64643000D03*
X138303000Y-51562000D03*
%TO.N,GND*%
X128143000Y-64643000D03*
X141935200Y-63754000D03*
X141605000Y-53975000D03*
X135509000Y-54737000D03*
X147193000Y-51689000D03*
X132461000Y-64262000D03*
X135382000Y-66802000D03*
X141224000Y-69088000D03*
X128143000Y-63881000D03*
X142443200Y-64211200D03*
X127381000Y-63881000D03*
X132461000Y-62738000D03*
X127381000Y-64643000D03*
X147955000Y-52451000D03*
X124587000Y-52959000D03*
X147955000Y-51689000D03*
X134747000Y-53975000D03*
X147193000Y-52451000D03*
X119368846Y-61217520D03*
X132080000Y-59182000D03*
X132842000Y-58420000D03*
X132461000Y-63500000D03*
X120142000Y-61214000D03*
X140843000Y-53213000D03*
X129032000Y-59182000D03*
X134747000Y-54737000D03*
X136906000Y-66802000D03*
X147828000Y-69088000D03*
X119380000Y-60452000D03*
X129032000Y-59944000D03*
X147828000Y-60833000D03*
X125349000Y-52959000D03*
X136144000Y-66802000D03*
X132080000Y-58420000D03*
X141605000Y-53213000D03*
X140843000Y-53975000D03*
X135509000Y-53975000D03*
X129794000Y-59944000D03*
X147828000Y-69850000D03*
X124587000Y-52197000D03*
X125349000Y-52197000D03*
X141224000Y-69850000D03*
X132842000Y-59182000D03*
X147828000Y-60071000D03*
X120142000Y-60452000D03*
X129794000Y-59182000D03*
%TO.N,+5V_IN*%
X140335000Y-65786000D03*
X146177000Y-67437000D03*
X140843000Y-58293000D03*
%TO.N,D+*%
X127254000Y-60198000D03*
X129540000Y-61976000D03*
%TO.N,D-*%
X129025932Y-62490068D03*
X126492000Y-60352000D03*
%TO.N,CC2*%
X123952000Y-59436000D03*
X126746000Y-57404000D03*
%TO.N,CTS*%
X146939000Y-57785000D03*
%TO.N,DSR*%
X141986000Y-58801000D03*
%TO.N,VBUS_EN*%
X130603372Y-53488000D03*
X131064000Y-68199000D03*
%TO.N,VADP_EN*%
X136652000Y-58293000D03*
X136652000Y-62665000D03*
%TD*%
D30*
%TO.N,+5V*%
X142113000Y-51562000D02*
X142113000Y-51513000D01*
X139192000Y-51054000D02*
X138684000Y-51562000D01*
D31*
X131988000Y-65325500D02*
X131988000Y-66723000D01*
D30*
X138943000Y-67437000D02*
X138943000Y-66299000D01*
X142621000Y-52070000D02*
X142113000Y-51562000D01*
D31*
X132067000Y-67805000D02*
X132334000Y-68072000D01*
X131988000Y-66723000D02*
X132067000Y-66802000D01*
X132334000Y-68072000D02*
X138938000Y-68072000D01*
D30*
X138938000Y-66294000D02*
X138943000Y-66299000D01*
D32*
X138684000Y-51562000D02*
X138303000Y-51562000D01*
X135382000Y-50673000D02*
X135649000Y-50940000D01*
X128651000Y-50673000D02*
X135382000Y-50673000D01*
D30*
X141654000Y-51054000D02*
X139192000Y-51054000D01*
D32*
X128279900Y-52814528D02*
X128268684Y-52803312D01*
D30*
X138943000Y-63500000D02*
X138943000Y-64643000D01*
X142113000Y-51513000D02*
X141654000Y-51054000D01*
D32*
X128279900Y-54345433D02*
X128279900Y-52814528D01*
X128268684Y-52803312D02*
X128268684Y-51055316D01*
X135649000Y-50940000D02*
X135649000Y-51562000D01*
D30*
X142670000Y-52070000D02*
X142621000Y-52070000D01*
D32*
X137744000Y-52838000D02*
X138551000Y-52838000D01*
D31*
X132067000Y-66802000D02*
X132067000Y-67805000D01*
D33*
X132488000Y-65325500D02*
X131988000Y-65325500D01*
D32*
X138684000Y-52705000D02*
X138684000Y-51562000D01*
X128268684Y-51055316D02*
X128651000Y-50673000D01*
D30*
X138684000Y-51562000D02*
X135649000Y-51562000D01*
D32*
X138551000Y-52838000D02*
X138684000Y-52705000D01*
D30*
%TO.N,GND*%
X143002000Y-65278000D02*
X142367000Y-64643000D01*
D32*
X140843000Y-53975000D02*
X140843000Y-54102000D01*
D30*
X145097000Y-65278000D02*
X143002000Y-65278000D01*
D32*
X140843000Y-54102000D02*
X139700000Y-55245000D01*
X131300500Y-62638000D02*
X132234000Y-62638000D01*
%TO.N,Net-(U1-VPP)*%
X135175500Y-63138000D02*
X136303000Y-63138000D01*
X136303000Y-63138000D02*
X136906000Y-63741000D01*
%TO.N,Net-(U1-VDD)*%
X131300500Y-64638000D02*
X129913000Y-64638000D01*
X129913000Y-64638000D02*
X129794000Y-64757000D01*
X130413000Y-64138000D02*
X129794000Y-64757000D01*
X131300500Y-64138000D02*
X130413000Y-64138000D01*
%TO.N,Net-(U2-PDLDO)*%
X137744000Y-53488000D02*
X139454000Y-53488000D01*
X139454000Y-53488000D02*
X139700000Y-53734000D01*
D30*
%TO.N,VBUS*%
X122682000Y-67056000D02*
X124763000Y-67056000D01*
X124763000Y-67867000D02*
X126365000Y-69469000D01*
X124763000Y-67056000D02*
X124763000Y-67867000D01*
X139736000Y-69469000D02*
X139893000Y-69312000D01*
X125281000Y-57702000D02*
X124706001Y-57702000D01*
X125281000Y-62502000D02*
X124534830Y-62502000D01*
X124534830Y-62502000D02*
X124262830Y-62230000D01*
X126365000Y-69469000D02*
X139736000Y-69469000D01*
X124262830Y-62230000D02*
X122428000Y-62230000D01*
X124706001Y-57702000D02*
X122428000Y-59980001D01*
X122428000Y-62230000D02*
X122428000Y-62738000D01*
X122428000Y-66802000D02*
X122682000Y-67056000D01*
X122428000Y-62738000D02*
X122428000Y-66802000D01*
X122428000Y-59980001D02*
X122428000Y-62230000D01*
D32*
%TO.N,+5V_IN*%
X141345390Y-57790610D02*
X140843000Y-58293000D01*
D30*
X146255000Y-67515000D02*
X146177000Y-67437000D01*
X139924000Y-65375000D02*
X140335000Y-65786000D01*
X139893000Y-65375000D02*
X139924000Y-65375000D01*
D32*
X141345390Y-56910925D02*
X141345390Y-57790610D01*
D30*
X146255000Y-68580000D02*
X146255000Y-67515000D01*
D32*
%TO.N,D+*%
X130702000Y-63138000D02*
X131300500Y-63138000D01*
X124460000Y-60098001D02*
X124706001Y-59852000D01*
X127254000Y-60335291D02*
X126710291Y-60879000D01*
X124460000Y-60706000D02*
X124460000Y-60098001D01*
X126157000Y-60879000D02*
X126130000Y-60852000D01*
X127254000Y-60198000D02*
X127254000Y-60335291D01*
X125281000Y-60852000D02*
X124606000Y-60852000D01*
X126710291Y-60879000D02*
X126157000Y-60879000D01*
X124606000Y-60852000D02*
X124460000Y-60706000D01*
X126130000Y-60852000D02*
X125281000Y-60852000D01*
X124706001Y-59852000D02*
X125281000Y-59852000D01*
X129540000Y-61976000D02*
X130702000Y-63138000D01*
%TO.N,D-*%
X129025932Y-62490068D02*
X129308777Y-62490068D01*
X126492000Y-59690000D02*
X126492000Y-60352000D01*
X129559000Y-62503000D02*
X130694000Y-63638000D01*
X126492000Y-60352000D02*
X125281000Y-60352000D01*
X129321709Y-62503000D02*
X129559000Y-62503000D01*
X126154000Y-59352000D02*
X126492000Y-59690000D01*
X125281000Y-59352000D02*
X126154000Y-59352000D01*
X129308777Y-62490068D02*
X129321709Y-62503000D01*
X130694000Y-63638000D02*
X131300500Y-63638000D01*
%TO.N,CC1*%
X126822000Y-58852000D02*
X128270000Y-57404000D01*
X125281000Y-58852000D02*
X126822000Y-58852000D01*
%TO.N,CC2*%
X126746000Y-56134000D02*
X126746000Y-57404000D01*
X124706001Y-61852000D02*
X123952000Y-61097999D01*
X127000000Y-55880000D02*
X126746000Y-56134000D01*
X128270000Y-55880000D02*
X127000000Y-55880000D01*
X123952000Y-61097999D02*
X123952000Y-59436000D01*
X125281000Y-61852000D02*
X124706001Y-61852000D01*
%TO.N,TXD0*%
X142367000Y-60198000D02*
X141859000Y-60706000D01*
X145097000Y-60198000D02*
X142367000Y-60198000D01*
%TO.N,RXD0*%
X139636000Y-59563000D02*
X138620000Y-60579000D01*
X144272000Y-57658000D02*
X142367000Y-59563000D01*
X142367000Y-59563000D02*
X139636000Y-59563000D01*
X145097000Y-57658000D02*
X144272000Y-57658000D01*
%TO.N,DTR*%
X134488000Y-61450500D02*
X134823500Y-61786000D01*
X134823500Y-61786000D02*
X142939000Y-61786000D01*
X143891000Y-62738000D02*
X145097000Y-62738000D01*
X142939000Y-61786000D02*
X143891000Y-62738000D01*
%TO.N,RTS*%
X132488000Y-61450500D02*
X132488000Y-60643104D01*
X139419104Y-58855000D02*
X141043000Y-58855000D01*
X143002000Y-55118000D02*
X145097000Y-55118000D01*
X133895104Y-59236000D02*
X139038104Y-59236000D01*
X142621000Y-57277000D02*
X142621000Y-55499000D01*
X139038104Y-59236000D02*
X139419104Y-58855000D01*
X142621000Y-55499000D02*
X143002000Y-55118000D01*
X141043000Y-58855000D02*
X142621000Y-57277000D01*
X132488000Y-60643104D02*
X133895104Y-59236000D01*
%TO.N,CTS*%
X141767000Y-62138000D02*
X143637000Y-64008000D01*
X143637000Y-64008000D02*
X146685000Y-64008000D01*
X146685000Y-64008000D02*
X146812000Y-63881000D01*
X146812000Y-57912000D02*
X146939000Y-57785000D01*
X146812000Y-63881000D02*
X146812000Y-57912000D01*
X135175500Y-62138000D02*
X141767000Y-62138000D01*
%TO.N,DSR*%
X134030552Y-59563000D02*
X139173552Y-59563000D01*
X141605000Y-59182000D02*
X141986000Y-58801000D01*
X132988000Y-61450500D02*
X132988000Y-60605552D01*
X139554552Y-59182000D02*
X141605000Y-59182000D01*
X139173552Y-59563000D02*
X139554552Y-59182000D01*
X132988000Y-60605552D02*
X134030552Y-59563000D01*
%TO.N,VBUS_EN*%
X138947816Y-68707000D02*
X131572000Y-68707000D01*
X140217816Y-67437000D02*
X138947816Y-68707000D01*
X140843000Y-67437000D02*
X140217816Y-67437000D01*
X132004000Y-53488000D02*
X130603372Y-53488000D01*
X130603372Y-53488000D02*
X129918684Y-52803312D01*
X132004000Y-53488000D02*
X132990000Y-53488000D01*
X131572000Y-68707000D02*
X131064000Y-68199000D01*
%TO.N,VADP_EN*%
X136652000Y-62611000D02*
X136652000Y-62665000D01*
X133731000Y-55626000D02*
X133731000Y-58166000D01*
X133553000Y-55448000D02*
X133731000Y-55626000D01*
X131032467Y-55448000D02*
X129929900Y-54345433D01*
X133731000Y-58166000D02*
X133858000Y-58293000D01*
X136727500Y-62535500D02*
X136652000Y-62611000D01*
X140843000Y-63500000D02*
X139878500Y-62535500D01*
X132004000Y-55448000D02*
X133553000Y-55448000D01*
X132004000Y-55448000D02*
X131032467Y-55448000D01*
X139878500Y-62535500D02*
X136727500Y-62535500D01*
X133858000Y-58293000D02*
X136652000Y-58293000D01*
%TO.N,Net-(U1-TXD)*%
X133488000Y-61450500D02*
X133488000Y-60568000D01*
X136589000Y-60198000D02*
X136970000Y-60579000D01*
X133488000Y-60568000D02*
X133858000Y-60198000D01*
X133858000Y-60198000D02*
X136589000Y-60198000D01*
%TO.N,Net-(U1-RXD)*%
X140209000Y-60706000D02*
X139456000Y-61459000D01*
X134112000Y-60579000D02*
X133985000Y-60706000D01*
X133988000Y-60709000D02*
X133988000Y-61450500D01*
X135500000Y-61459000D02*
X134620000Y-60579000D01*
X133985000Y-60706000D02*
X133988000Y-60709000D01*
X134620000Y-60579000D02*
X134112000Y-60579000D01*
X139456000Y-61459000D02*
X135500000Y-61459000D01*
%TO.N,Net-(U2-C0CC2)*%
X130788000Y-56748000D02*
X129920000Y-55880000D01*
X132004000Y-56748000D02*
X130788000Y-56748000D01*
%TO.N,Net-(U2-C0CC1)*%
X132004000Y-57398000D02*
X129926000Y-57398000D01*
X129926000Y-57398000D02*
X129920000Y-57404000D01*
%TO.N,C1_VBUS_DET*%
X137744000Y-56098000D02*
X138903000Y-56098000D01*
X141224000Y-55371000D02*
X139700000Y-56895000D01*
X138903000Y-56098000D02*
X139700000Y-56895000D01*
X141224000Y-55309000D02*
X141224000Y-55371000D01*
%TD*%
%TA.AperFunction,Conductor*%
%TO.N,GND*%
G36*
X148533039Y-49844325D02*
G01*
X148578794Y-49897129D01*
X148590000Y-49948640D01*
X148590000Y-70447360D01*
X148570315Y-70514399D01*
X148517511Y-70560154D01*
X148466000Y-70571360D01*
X140590449Y-70571360D01*
X140523410Y-70551675D01*
X140477655Y-70498871D01*
X140467711Y-70429713D01*
X140496736Y-70366157D01*
X140502768Y-70359679D01*
X140561076Y-70301370D01*
X140561081Y-70301365D01*
X140644744Y-70159898D01*
X140690598Y-70002069D01*
X140693500Y-69965194D01*
X140693500Y-69279986D01*
X142230001Y-69279986D01*
X142240494Y-69382697D01*
X142295641Y-69549119D01*
X142295643Y-69549124D01*
X142387684Y-69698345D01*
X142511654Y-69822315D01*
X142660875Y-69914356D01*
X142660880Y-69914358D01*
X142827302Y-69969505D01*
X142827309Y-69969506D01*
X142930019Y-69979999D01*
X143054999Y-69979999D01*
X143555000Y-69979999D01*
X143679972Y-69979999D01*
X143679986Y-69979998D01*
X143782697Y-69969505D01*
X143949119Y-69914358D01*
X143949124Y-69914356D01*
X144098345Y-69822315D01*
X144222315Y-69698345D01*
X144314356Y-69549124D01*
X144314358Y-69549119D01*
X144369505Y-69382697D01*
X144369506Y-69382690D01*
X144379999Y-69279986D01*
X144380000Y-69279973D01*
X144380000Y-68830000D01*
X143555000Y-68830000D01*
X143555000Y-69979999D01*
X143054999Y-69979999D01*
X143055000Y-69979998D01*
X143055000Y-68830000D01*
X142230001Y-68830000D01*
X142230001Y-69279986D01*
X140693500Y-69279986D01*
X140693500Y-68799000D01*
X140713185Y-68731961D01*
X140765989Y-68686206D01*
X140817500Y-68675000D01*
X141058686Y-68675000D01*
X141058694Y-68675000D01*
X141095569Y-68672098D01*
X141095571Y-68672097D01*
X141095573Y-68672097D01*
X141137191Y-68660005D01*
X141253398Y-68626244D01*
X141394865Y-68542581D01*
X141511081Y-68426365D01*
X141594744Y-68284898D01*
X141640598Y-68127069D01*
X141643500Y-68090194D01*
X141643500Y-67880013D01*
X142230000Y-67880013D01*
X142230000Y-68330000D01*
X143055000Y-68330000D01*
X143555000Y-68330000D01*
X144379999Y-68330000D01*
X144379999Y-67880028D01*
X144379998Y-67880013D01*
X144379995Y-67879983D01*
X145179500Y-67879983D01*
X145179500Y-69280001D01*
X145179501Y-69280018D01*
X145190000Y-69382796D01*
X145190001Y-69382799D01*
X145243815Y-69545197D01*
X145245186Y-69549334D01*
X145337288Y-69698656D01*
X145461344Y-69822712D01*
X145610666Y-69914814D01*
X145777203Y-69969999D01*
X145879991Y-69980500D01*
X146630008Y-69980499D01*
X146630016Y-69980498D01*
X146630019Y-69980498D01*
X146686302Y-69974748D01*
X146732797Y-69969999D01*
X146899334Y-69914814D01*
X147048656Y-69822712D01*
X147172712Y-69698656D01*
X147264814Y-69549334D01*
X147319999Y-69382797D01*
X147330500Y-69280009D01*
X147330499Y-67879992D01*
X147319999Y-67777203D01*
X147264814Y-67610666D01*
X147172712Y-67461344D01*
X147048656Y-67337288D01*
X147014808Y-67316410D01*
X146968085Y-67264464D01*
X146965357Y-67258351D01*
X146948793Y-67218362D01*
X146946321Y-67211886D01*
X146942060Y-67199708D01*
X146902789Y-67087478D01*
X146806816Y-66934738D01*
X146679262Y-66807184D01*
X146677378Y-66806000D01*
X146526523Y-66711211D01*
X146356254Y-66651631D01*
X146356249Y-66651630D01*
X146177004Y-66631435D01*
X146176996Y-66631435D01*
X145997750Y-66651630D01*
X145997745Y-66651631D01*
X145827476Y-66711211D01*
X145674737Y-66807184D01*
X145547184Y-66934737D01*
X145451210Y-67087478D01*
X145391630Y-67257750D01*
X145377536Y-67382836D01*
X145350469Y-67447250D01*
X145342006Y-67456624D01*
X145337291Y-67461339D01*
X145337286Y-67461345D01*
X145245189Y-67610659D01*
X145245185Y-67610668D01*
X145245115Y-67610880D01*
X145190001Y-67777203D01*
X145190001Y-67777204D01*
X145190000Y-67777204D01*
X145179500Y-67879983D01*
X144379995Y-67879983D01*
X144369505Y-67777302D01*
X144314358Y-67610880D01*
X144314356Y-67610875D01*
X144222315Y-67461654D01*
X144098345Y-67337684D01*
X143949124Y-67245643D01*
X143949119Y-67245641D01*
X143782697Y-67190494D01*
X143782690Y-67190493D01*
X143679986Y-67180000D01*
X143555000Y-67180000D01*
X143555000Y-68330000D01*
X143055000Y-68330000D01*
X143055000Y-67180000D01*
X142930027Y-67180000D01*
X142930012Y-67180001D01*
X142827302Y-67190494D01*
X142660880Y-67245641D01*
X142660875Y-67245643D01*
X142511654Y-67337684D01*
X142387684Y-67461654D01*
X142295643Y-67610875D01*
X142295641Y-67610880D01*
X142240494Y-67777302D01*
X142240493Y-67777309D01*
X142230000Y-67880013D01*
X141643500Y-67880013D01*
X141643500Y-66783806D01*
X141640598Y-66746931D01*
X141635007Y-66727688D01*
X141594745Y-66589106D01*
X141594744Y-66589103D01*
X141594744Y-66589102D01*
X141511081Y-66447635D01*
X141511079Y-66447633D01*
X141511076Y-66447629D01*
X141394870Y-66331423D01*
X141394862Y-66331417D01*
X141293709Y-66271596D01*
X141253398Y-66247756D01*
X141253397Y-66247755D01*
X141253396Y-66247755D01*
X141253393Y-66247753D01*
X141168583Y-66223114D01*
X141109697Y-66185508D01*
X141080491Y-66122035D01*
X141086137Y-66063083D01*
X141120366Y-65965262D01*
X141120369Y-65965249D01*
X141136076Y-65825844D01*
X143347000Y-65825844D01*
X143353401Y-65885372D01*
X143353403Y-65885379D01*
X143403645Y-66020086D01*
X143403649Y-66020093D01*
X143489809Y-66135187D01*
X143489812Y-66135190D01*
X143604906Y-66221350D01*
X143604913Y-66221354D01*
X143739620Y-66271596D01*
X143739627Y-66271598D01*
X143799155Y-66277999D01*
X143799172Y-66278000D01*
X144847000Y-66278000D01*
X145347000Y-66278000D01*
X146394828Y-66278000D01*
X146394844Y-66277999D01*
X146454372Y-66271598D01*
X146454379Y-66271596D01*
X146589086Y-66221354D01*
X146589093Y-66221350D01*
X146704187Y-66135190D01*
X146704190Y-66135187D01*
X146790350Y-66020093D01*
X146790354Y-66020086D01*
X146840596Y-65885379D01*
X146840598Y-65885372D01*
X146846999Y-65825844D01*
X146847000Y-65825827D01*
X146847000Y-65528000D01*
X145347000Y-65528000D01*
X145347000Y-66278000D01*
X144847000Y-66278000D01*
X144847000Y-65528000D01*
X143347000Y-65528000D01*
X143347000Y-65825844D01*
X141136076Y-65825844D01*
X141140565Y-65786003D01*
X141140565Y-65785996D01*
X141120369Y-65606750D01*
X141120368Y-65606745D01*
X141108471Y-65572745D01*
X141060789Y-65436478D01*
X141059885Y-65435040D01*
X140977356Y-65303696D01*
X140964816Y-65283738D01*
X140837262Y-65156184D01*
X140837260Y-65156182D01*
X140751527Y-65102312D01*
X140705236Y-65049977D01*
X140693500Y-64997319D01*
X140693500Y-64862000D01*
X140713185Y-64794961D01*
X140765989Y-64749206D01*
X140817500Y-64738000D01*
X141058686Y-64738000D01*
X141058694Y-64738000D01*
X141095569Y-64735098D01*
X141095571Y-64735097D01*
X141095573Y-64735097D01*
X141169255Y-64713690D01*
X141253398Y-64689244D01*
X141394865Y-64605581D01*
X141511081Y-64489365D01*
X141594744Y-64347898D01*
X141640598Y-64190069D01*
X141643500Y-64153194D01*
X141643500Y-63163097D01*
X141663185Y-63096058D01*
X141715989Y-63050303D01*
X141785147Y-63040359D01*
X141848703Y-63069384D01*
X141855181Y-63075416D01*
X143152139Y-64372374D01*
X143152149Y-64372385D01*
X143156479Y-64376715D01*
X143156480Y-64376716D01*
X143268284Y-64488520D01*
X143268286Y-64488521D01*
X143268290Y-64488524D01*
X143303369Y-64508777D01*
X143351585Y-64559343D01*
X143364809Y-64627950D01*
X143357552Y-64659496D01*
X143353402Y-64670622D01*
X143353401Y-64670624D01*
X143347000Y-64730155D01*
X143347000Y-65028000D01*
X146847000Y-65028000D01*
X146847000Y-64730172D01*
X146846999Y-64730163D01*
X146843162Y-64694480D01*
X146855565Y-64625720D01*
X146903174Y-64574581D01*
X146914294Y-64569015D01*
X146916785Y-64567577D01*
X146986889Y-64527102D01*
X147053716Y-64488520D01*
X147165520Y-64376716D01*
X147165520Y-64376714D01*
X147180714Y-64361520D01*
X147180716Y-64361520D01*
X147292520Y-64249716D01*
X147345772Y-64157480D01*
X147371577Y-64112785D01*
X147412500Y-63960057D01*
X147412500Y-63801943D01*
X147412500Y-58494940D01*
X147432185Y-58427901D01*
X147448819Y-58407259D01*
X147482992Y-58373086D01*
X147568816Y-58287262D01*
X147664789Y-58134522D01*
X147724368Y-57964255D01*
X147724369Y-57964249D01*
X147744565Y-57785003D01*
X147744565Y-57784996D01*
X147724369Y-57605750D01*
X147724368Y-57605745D01*
X147709903Y-57564406D01*
X147664789Y-57435478D01*
X147568816Y-57282738D01*
X147441262Y-57155184D01*
X147288523Y-57059211D01*
X147118254Y-56999631D01*
X147118249Y-56999630D01*
X146939004Y-56979435D01*
X146939003Y-56979435D01*
X146939001Y-56979435D01*
X146939000Y-56979435D01*
X146923463Y-56981185D01*
X146914972Y-56982142D01*
X146846150Y-56970085D01*
X146794772Y-56922735D01*
X146792258Y-56918346D01*
X146790794Y-56915666D01*
X146704547Y-56800455D01*
X146704544Y-56800452D01*
X146589335Y-56714206D01*
X146589328Y-56714202D01*
X146454482Y-56663908D01*
X146454483Y-56663908D01*
X146394883Y-56657501D01*
X146394881Y-56657500D01*
X146394873Y-56657500D01*
X146394864Y-56657500D01*
X143799129Y-56657500D01*
X143799123Y-56657501D01*
X143739516Y-56663908D01*
X143604671Y-56714202D01*
X143604664Y-56714206D01*
X143489455Y-56800452D01*
X143444766Y-56860149D01*
X143388832Y-56902019D01*
X143319140Y-56907003D01*
X143257818Y-56873517D01*
X143224333Y-56812193D01*
X143221500Y-56785837D01*
X143221500Y-55990162D01*
X143241185Y-55923123D01*
X143293989Y-55877368D01*
X143363147Y-55867424D01*
X143426703Y-55896449D01*
X143444763Y-55915847D01*
X143489454Y-55975546D01*
X143535643Y-56010123D01*
X143604664Y-56061793D01*
X143604671Y-56061797D01*
X143739517Y-56112091D01*
X143739516Y-56112091D01*
X143746444Y-56112835D01*
X143799127Y-56118500D01*
X146394872Y-56118499D01*
X146454483Y-56112091D01*
X146589331Y-56061796D01*
X146704546Y-55975546D01*
X146790796Y-55860331D01*
X146841091Y-55725483D01*
X146847500Y-55665873D01*
X146847499Y-54570128D01*
X146841091Y-54510517D01*
X146839202Y-54505453D01*
X146790797Y-54375671D01*
X146790793Y-54375664D01*
X146704547Y-54260455D01*
X146704544Y-54260452D01*
X146589335Y-54174206D01*
X146589328Y-54174202D01*
X146454482Y-54123908D01*
X146454483Y-54123908D01*
X146394883Y-54117501D01*
X146394881Y-54117500D01*
X146394873Y-54117500D01*
X146394864Y-54117500D01*
X143799129Y-54117500D01*
X143799123Y-54117501D01*
X143739516Y-54123908D01*
X143604671Y-54174202D01*
X143604664Y-54174206D01*
X143489455Y-54260452D01*
X143489452Y-54260455D01*
X143403206Y-54375664D01*
X143403202Y-54375671D01*
X143380391Y-54436833D01*
X143338520Y-54492767D01*
X143273056Y-54517184D01*
X143264209Y-54517500D01*
X142922940Y-54517500D01*
X142882019Y-54528464D01*
X142882019Y-54528465D01*
X142868946Y-54531968D01*
X142770214Y-54558423D01*
X142770209Y-54558426D01*
X142633290Y-54637475D01*
X142633282Y-54637481D01*
X142521478Y-54749286D01*
X142521477Y-54749287D01*
X142464012Y-54806751D01*
X142402689Y-54840235D01*
X142332997Y-54835250D01*
X142277064Y-54793379D01*
X142267817Y-54777696D01*
X142267748Y-54777738D01*
X142250549Y-54749287D01*
X142175862Y-54625740D01*
X142175860Y-54625738D01*
X142175859Y-54625736D01*
X142055578Y-54505455D01*
X141909996Y-54417447D01*
X141775929Y-54375671D01*
X141747586Y-54366839D01*
X141747584Y-54366838D01*
X141747582Y-54366838D01*
X141698168Y-54362348D01*
X141677006Y-54360425D01*
X141013774Y-54360425D01*
X140994535Y-54362173D01*
X140943197Y-54366838D01*
X140943194Y-54366839D01*
X140780784Y-54417447D01*
X140780782Y-54417448D01*
X140773623Y-54419679D01*
X140773188Y-54418284D01*
X140712247Y-54426697D01*
X140648856Y-54397316D01*
X140611412Y-54338327D01*
X140611804Y-54268458D01*
X140612848Y-54265146D01*
X140665349Y-54106708D01*
X140675500Y-54007345D01*
X140675499Y-53460656D01*
X140675381Y-53459505D01*
X140665349Y-53361292D01*
X140665348Y-53361289D01*
X140649251Y-53312712D01*
X140612003Y-53200303D01*
X140611999Y-53200297D01*
X140611998Y-53200294D01*
X140522970Y-53055959D01*
X140522967Y-53055955D01*
X140513339Y-53046327D01*
X140479854Y-52985004D01*
X140484838Y-52915312D01*
X140513345Y-52870959D01*
X140522573Y-52861731D01*
X140611542Y-52717492D01*
X140611547Y-52717481D01*
X140664855Y-52556606D01*
X140674999Y-52457322D01*
X140675000Y-52457309D01*
X140675000Y-52434000D01*
X139574000Y-52434000D01*
X139506961Y-52414315D01*
X139461206Y-52361511D01*
X139450000Y-52310000D01*
X139450000Y-52058000D01*
X139469685Y-51990961D01*
X139522489Y-51945206D01*
X139574000Y-51934000D01*
X140674999Y-51934000D01*
X140674999Y-51932500D01*
X140694684Y-51865461D01*
X140747488Y-51819706D01*
X140798999Y-51808500D01*
X141290113Y-51808500D01*
X141357152Y-51828185D01*
X141377794Y-51844819D01*
X141422183Y-51889208D01*
X141440868Y-51914402D01*
X141440985Y-51914324D01*
X141442573Y-51916700D01*
X141443863Y-51918440D01*
X141444373Y-51919395D01*
X141526940Y-52042966D01*
X141526943Y-52042969D01*
X141558180Y-52074205D01*
X141591666Y-52135527D01*
X141594500Y-52161887D01*
X141594500Y-52770001D01*
X141594501Y-52770019D01*
X141605000Y-52872796D01*
X141605001Y-52872799D01*
X141649631Y-53007481D01*
X141660186Y-53039334D01*
X141752288Y-53188656D01*
X141876344Y-53312712D01*
X142025666Y-53404814D01*
X142192203Y-53459999D01*
X142294991Y-53470500D01*
X143045008Y-53470499D01*
X143045016Y-53470498D01*
X143045019Y-53470498D01*
X143101302Y-53464748D01*
X143147797Y-53459999D01*
X143314334Y-53404814D01*
X143463656Y-53312712D01*
X143587712Y-53188656D01*
X143679814Y-53039334D01*
X143734999Y-52872797D01*
X143745500Y-52770009D01*
X143745500Y-52769986D01*
X144545001Y-52769986D01*
X144555494Y-52872697D01*
X144610641Y-53039119D01*
X144610643Y-53039124D01*
X144702684Y-53188345D01*
X144826654Y-53312315D01*
X144975875Y-53404356D01*
X144975880Y-53404358D01*
X145142302Y-53459505D01*
X145142309Y-53459506D01*
X145245019Y-53469999D01*
X145369999Y-53469999D01*
X145870000Y-53469999D01*
X145994972Y-53469999D01*
X145994986Y-53469998D01*
X146097697Y-53459505D01*
X146264119Y-53404358D01*
X146264124Y-53404356D01*
X146413345Y-53312315D01*
X146537315Y-53188345D01*
X146629356Y-53039124D01*
X146629358Y-53039119D01*
X146684505Y-52872697D01*
X146684506Y-52872690D01*
X146694999Y-52769986D01*
X146695000Y-52769973D01*
X146695000Y-52320000D01*
X145870000Y-52320000D01*
X145870000Y-53469999D01*
X145369999Y-53469999D01*
X145370000Y-53469998D01*
X145370000Y-52320000D01*
X144545001Y-52320000D01*
X144545001Y-52769986D01*
X143745500Y-52769986D01*
X143745499Y-51370013D01*
X144545000Y-51370013D01*
X144545000Y-51820000D01*
X145370000Y-51820000D01*
X145870000Y-51820000D01*
X146694999Y-51820000D01*
X146694999Y-51370028D01*
X146694998Y-51370013D01*
X146684505Y-51267302D01*
X146629358Y-51100880D01*
X146629356Y-51100875D01*
X146537315Y-50951654D01*
X146413345Y-50827684D01*
X146264124Y-50735643D01*
X146264119Y-50735641D01*
X146097697Y-50680494D01*
X146097690Y-50680493D01*
X145994986Y-50670000D01*
X145870000Y-50670000D01*
X145870000Y-51820000D01*
X145370000Y-51820000D01*
X145370000Y-50670000D01*
X145245027Y-50670000D01*
X145245012Y-50670001D01*
X145142302Y-50680494D01*
X144975880Y-50735641D01*
X144975875Y-50735643D01*
X144826654Y-50827684D01*
X144702684Y-50951654D01*
X144610643Y-51100875D01*
X144610641Y-51100880D01*
X144555494Y-51267302D01*
X144555493Y-51267309D01*
X144545000Y-51370013D01*
X143745499Y-51370013D01*
X143745499Y-51369992D01*
X143734999Y-51267203D01*
X143679814Y-51100666D01*
X143587712Y-50951344D01*
X143463656Y-50827288D01*
X143320571Y-50739033D01*
X143314336Y-50735187D01*
X143314331Y-50735185D01*
X143287563Y-50726315D01*
X143147797Y-50680001D01*
X143147795Y-50680000D01*
X143045016Y-50669500D01*
X143045009Y-50669500D01*
X142387887Y-50669500D01*
X142320848Y-50649815D01*
X142300206Y-50633181D01*
X142134969Y-50467943D01*
X142134968Y-50467942D01*
X142011392Y-50385372D01*
X142011391Y-50385371D01*
X142011389Y-50385370D01*
X142011386Y-50385368D01*
X142011381Y-50385366D01*
X141900648Y-50339500D01*
X141874080Y-50328495D01*
X141874070Y-50328493D01*
X141849894Y-50323684D01*
X141728314Y-50299499D01*
X141728312Y-50299499D01*
X141579688Y-50299499D01*
X141573574Y-50299499D01*
X141573554Y-50299500D01*
X139117683Y-50299500D01*
X138971927Y-50328493D01*
X138971919Y-50328495D01*
X138834608Y-50385371D01*
X138711035Y-50467939D01*
X138711034Y-50467940D01*
X138658488Y-50520487D01*
X138605941Y-50573034D01*
X138605939Y-50573036D01*
X138479883Y-50699090D01*
X138452659Y-50726315D01*
X138391335Y-50759799D01*
X138351096Y-50761853D01*
X138303004Y-50756435D01*
X138302996Y-50756435D01*
X138123750Y-50776630D01*
X138123737Y-50776633D01*
X138055415Y-50800541D01*
X138014460Y-50807500D01*
X136446874Y-50807500D01*
X136379835Y-50787815D01*
X136359193Y-50771181D01*
X136327043Y-50739031D01*
X136327040Y-50739029D01*
X136197328Y-50659021D01*
X136155038Y-50615483D01*
X136131548Y-50574796D01*
X136129521Y-50571285D01*
X136013385Y-50455149D01*
X136013374Y-50455139D01*
X135869590Y-50311355D01*
X135869588Y-50311352D01*
X135750717Y-50192481D01*
X135750716Y-50192480D01*
X135663904Y-50142360D01*
X135663904Y-50142359D01*
X135663900Y-50142358D01*
X135613785Y-50113423D01*
X135461057Y-50072499D01*
X135461055Y-50072499D01*
X135454067Y-50071579D01*
X135390172Y-50043310D01*
X135351702Y-49984985D01*
X135350873Y-49915120D01*
X135387946Y-49855898D01*
X135451153Y-49826120D01*
X135470256Y-49824640D01*
X148466000Y-49824640D01*
X148533039Y-49844325D01*
G37*
%TD.AperFunction*%
%TA.AperFunction,Conductor*%
G36*
X131029422Y-58007938D02*
G01*
X131113422Y-58042733D01*
X131242957Y-58068499D01*
X131242961Y-58068500D01*
X131242962Y-58068500D01*
X132765039Y-58068500D01*
X132765040Y-58068499D01*
X132894578Y-58042733D01*
X132959046Y-58016028D01*
X133028515Y-58008560D01*
X133090995Y-58039835D01*
X133126647Y-58099924D01*
X133130499Y-58130590D01*
X133130499Y-58245054D01*
X133130498Y-58245054D01*
X133130499Y-58245057D01*
X133171423Y-58397785D01*
X133172893Y-58400331D01*
X133172894Y-58400332D01*
X133172894Y-58400333D01*
X133250477Y-58534712D01*
X133250481Y-58534717D01*
X133369349Y-58653585D01*
X133369355Y-58653590D01*
X133373139Y-58657374D01*
X133373160Y-58657397D01*
X133411133Y-58695369D01*
X133444619Y-58756691D01*
X133439635Y-58826383D01*
X133411134Y-58870732D01*
X132119286Y-60162582D01*
X132007481Y-60274386D01*
X132007475Y-60274394D01*
X131965434Y-60347213D01*
X131965434Y-60347214D01*
X131928423Y-60411318D01*
X131928422Y-60411322D01*
X131916275Y-60456651D01*
X131879909Y-60516310D01*
X131817061Y-60546838D01*
X131812687Y-60547493D01*
X131778535Y-60551989D01*
X131778527Y-60551991D01*
X131641574Y-60608719D01*
X131641571Y-60608720D01*
X131641571Y-60608721D01*
X131523964Y-60698964D01*
X131447588Y-60798500D01*
X131433719Y-60816574D01*
X131376991Y-60953527D01*
X131376990Y-60953529D01*
X131362501Y-61063589D01*
X131362500Y-61063605D01*
X131362500Y-61388500D01*
X131342815Y-61455539D01*
X131290011Y-61501294D01*
X131238500Y-61512500D01*
X130913596Y-61512500D01*
X130803536Y-61526988D01*
X130803527Y-61526991D01*
X130666574Y-61583719D01*
X130666571Y-61583720D01*
X130666571Y-61583721D01*
X130627762Y-61613500D01*
X130548961Y-61673966D01*
X130505540Y-61730554D01*
X130449112Y-61771757D01*
X130379366Y-61775911D01*
X130318446Y-61741698D01*
X130290123Y-61696021D01*
X130265789Y-61626478D01*
X130194172Y-61512500D01*
X130169816Y-61473738D01*
X130042262Y-61346184D01*
X129977482Y-61305480D01*
X129889523Y-61250211D01*
X129719254Y-61190631D01*
X129719249Y-61190630D01*
X129540004Y-61170435D01*
X129539996Y-61170435D01*
X129360750Y-61190630D01*
X129360745Y-61190631D01*
X129190476Y-61250211D01*
X129037737Y-61346184D01*
X128910184Y-61473737D01*
X128814212Y-61626475D01*
X128814211Y-61626477D01*
X128798213Y-61672196D01*
X128757490Y-61728972D01*
X128722128Y-61748281D01*
X128676409Y-61764279D01*
X128676407Y-61764280D01*
X128523669Y-61860252D01*
X128396116Y-61987805D01*
X128300143Y-62140544D01*
X128240563Y-62310813D01*
X128240562Y-62310818D01*
X128220367Y-62490064D01*
X128220367Y-62490071D01*
X128240562Y-62669317D01*
X128240563Y-62669322D01*
X128300143Y-62839591D01*
X128361658Y-62937491D01*
X128396116Y-62992330D01*
X128523670Y-63119884D01*
X128552408Y-63137941D01*
X128647441Y-63197655D01*
X128676410Y-63215857D01*
X128806636Y-63261425D01*
X128846677Y-63275436D01*
X128846682Y-63275437D01*
X129025928Y-63295633D01*
X129025932Y-63295633D01*
X129025936Y-63295633D01*
X129205181Y-63275437D01*
X129205183Y-63275436D01*
X129205187Y-63275436D01*
X129205190Y-63275434D01*
X129205194Y-63275434D01*
X129336853Y-63229364D01*
X129406631Y-63225801D01*
X129465489Y-63258724D01*
X129801584Y-63594819D01*
X129835069Y-63656142D01*
X129830085Y-63725834D01*
X129788213Y-63781767D01*
X129722749Y-63806184D01*
X129713904Y-63806500D01*
X129495663Y-63806500D01*
X129495644Y-63806501D01*
X129396292Y-63816650D01*
X129396289Y-63816651D01*
X129235305Y-63869996D01*
X129235294Y-63870001D01*
X129090959Y-63959029D01*
X129090955Y-63959032D01*
X128971032Y-64078955D01*
X128971029Y-64078959D01*
X128882001Y-64223294D01*
X128881996Y-64223305D01*
X128828651Y-64384290D01*
X128818500Y-64483647D01*
X128818500Y-65030337D01*
X128818501Y-65030355D01*
X128828650Y-65129707D01*
X128828651Y-65129710D01*
X128881996Y-65290694D01*
X128882001Y-65290705D01*
X128971029Y-65435040D01*
X128971032Y-65435044D01*
X128980660Y-65444672D01*
X129014145Y-65505995D01*
X129009161Y-65575687D01*
X128980663Y-65620031D01*
X128971428Y-65629265D01*
X128971424Y-65629271D01*
X128882457Y-65773507D01*
X128882453Y-65773516D01*
X128842001Y-65895592D01*
X128802228Y-65953036D01*
X128737712Y-65979859D01*
X128668936Y-65967544D01*
X128636773Y-65941413D01*
X128635424Y-65942763D01*
X128506345Y-65813684D01*
X128357124Y-65721643D01*
X128357119Y-65721641D01*
X128190697Y-65666494D01*
X128190690Y-65666493D01*
X128087986Y-65656000D01*
X127963000Y-65656000D01*
X127963000Y-66806000D01*
X128791976Y-66806000D01*
X128859015Y-66825685D01*
X128897514Y-66864902D01*
X128971426Y-66984731D01*
X129091267Y-67104572D01*
X129091271Y-67104575D01*
X129235507Y-67193542D01*
X129235518Y-67193547D01*
X129396393Y-67246855D01*
X129495683Y-67256999D01*
X130044000Y-67256999D01*
X130092308Y-67256999D01*
X130092322Y-67256998D01*
X130191607Y-67246855D01*
X130352481Y-67193547D01*
X130352492Y-67193542D01*
X130496728Y-67104575D01*
X130496732Y-67104572D01*
X130616572Y-66984732D01*
X130616575Y-66984728D01*
X130705542Y-66840492D01*
X130705547Y-66840481D01*
X130758855Y-66679606D01*
X130768999Y-66580322D01*
X130769000Y-66580309D01*
X130769000Y-66557000D01*
X130044000Y-66557000D01*
X130044000Y-67256999D01*
X129495683Y-67256999D01*
X129543999Y-67256998D01*
X129544000Y-67256998D01*
X129544000Y-66181000D01*
X129563685Y-66113961D01*
X129616489Y-66068206D01*
X129668000Y-66057000D01*
X130768999Y-66057000D01*
X130768999Y-66033692D01*
X130768998Y-66033677D01*
X130758855Y-65934392D01*
X130705547Y-65773518D01*
X130705542Y-65773507D01*
X130616575Y-65629271D01*
X130616572Y-65629267D01*
X130607339Y-65620034D01*
X130573854Y-65558711D01*
X130578838Y-65489019D01*
X130607343Y-65444668D01*
X130616968Y-65435044D01*
X130694971Y-65308581D01*
X130746917Y-65261859D01*
X130815880Y-65250638D01*
X130816641Y-65250735D01*
X130913599Y-65263500D01*
X131236500Y-65263499D01*
X131303539Y-65283183D01*
X131349294Y-65335987D01*
X131360500Y-65387499D01*
X131360500Y-65956126D01*
X131340815Y-66023165D01*
X131324181Y-66043807D01*
X131269032Y-66098955D01*
X131269029Y-66098959D01*
X131180001Y-66243294D01*
X131179996Y-66243305D01*
X131126651Y-66404290D01*
X131116500Y-66503647D01*
X131116500Y-67100337D01*
X131116501Y-67100355D01*
X131126650Y-67199707D01*
X131126652Y-67199714D01*
X131138195Y-67234549D01*
X131140596Y-67304378D01*
X131104864Y-67364419D01*
X131042343Y-67395611D01*
X131034373Y-67396772D01*
X130884749Y-67413630D01*
X130884745Y-67413631D01*
X130714476Y-67473211D01*
X130561737Y-67569184D01*
X130434184Y-67696737D01*
X130338211Y-67849476D01*
X130278631Y-68019745D01*
X130278630Y-68019750D01*
X130258435Y-68198996D01*
X130258435Y-68199003D01*
X130278630Y-68378249D01*
X130278631Y-68378254D01*
X130338569Y-68549545D01*
X130342130Y-68619324D01*
X130307401Y-68679952D01*
X130245408Y-68712179D01*
X130221527Y-68714500D01*
X126728886Y-68714500D01*
X126661847Y-68694815D01*
X126641205Y-68678181D01*
X125869091Y-67906066D01*
X125835606Y-67844743D01*
X125833414Y-67805788D01*
X125838500Y-67756009D01*
X125838500Y-67755986D01*
X126638001Y-67755986D01*
X126648494Y-67858697D01*
X126703641Y-68025119D01*
X126703643Y-68025124D01*
X126795684Y-68174345D01*
X126919654Y-68298315D01*
X127068875Y-68390356D01*
X127068880Y-68390358D01*
X127235302Y-68445505D01*
X127235309Y-68445506D01*
X127338019Y-68455999D01*
X127462999Y-68455999D01*
X127963000Y-68455999D01*
X128087972Y-68455999D01*
X128087986Y-68455998D01*
X128190697Y-68445505D01*
X128357119Y-68390358D01*
X128357124Y-68390356D01*
X128506345Y-68298315D01*
X128630315Y-68174345D01*
X128722356Y-68025124D01*
X128722358Y-68025119D01*
X128777505Y-67858697D01*
X128777506Y-67858690D01*
X128787999Y-67755986D01*
X128788000Y-67755973D01*
X128788000Y-67306000D01*
X127963000Y-67306000D01*
X127963000Y-68455999D01*
X127462999Y-68455999D01*
X127463000Y-68455998D01*
X127463000Y-67306000D01*
X126638001Y-67306000D01*
X126638001Y-67755986D01*
X125838500Y-67755986D01*
X125838499Y-66356013D01*
X126638000Y-66356013D01*
X126638000Y-66806000D01*
X127463000Y-66806000D01*
X127463000Y-65656000D01*
X127338027Y-65656000D01*
X127338012Y-65656001D01*
X127235302Y-65666494D01*
X127068880Y-65721641D01*
X127068875Y-65721643D01*
X126919654Y-65813684D01*
X126795684Y-65937654D01*
X126703643Y-66086875D01*
X126703641Y-66086880D01*
X126648494Y-66253302D01*
X126648493Y-66253309D01*
X126638000Y-66356013D01*
X125838499Y-66356013D01*
X125838499Y-66355992D01*
X125827999Y-66253203D01*
X125772814Y-66086666D01*
X125680712Y-65937344D01*
X125556656Y-65813288D01*
X125407334Y-65721186D01*
X125240797Y-65666001D01*
X125240795Y-65666000D01*
X125234371Y-65663872D01*
X125235288Y-65661104D01*
X125185199Y-65633961D01*
X125151519Y-65572745D01*
X125156280Y-65503038D01*
X125197973Y-65446971D01*
X125263359Y-65422345D01*
X125272600Y-65422000D01*
X125354492Y-65422000D01*
X125354495Y-65421999D01*
X125547681Y-65383572D01*
X125547693Y-65383569D01*
X125729671Y-65308192D01*
X125729684Y-65308185D01*
X125893462Y-65198751D01*
X125893466Y-65198748D01*
X126032748Y-65059466D01*
X126032751Y-65059462D01*
X126142185Y-64895684D01*
X126142192Y-64895671D01*
X126217569Y-64713692D01*
X126217569Y-64713690D01*
X126225862Y-64672000D01*
X125422988Y-64672000D01*
X125440205Y-64662060D01*
X125496060Y-64606205D01*
X125535556Y-64537796D01*
X125556000Y-64461496D01*
X125556000Y-64382504D01*
X125535556Y-64306204D01*
X125496060Y-64237795D01*
X125440205Y-64181940D01*
X125422988Y-64172000D01*
X126225862Y-64172000D01*
X126217569Y-64130309D01*
X126217569Y-64130307D01*
X126170008Y-64015483D01*
X126162539Y-63946014D01*
X126193814Y-63883535D01*
X126196889Y-63880348D01*
X126223683Y-63853553D01*
X126223686Y-63853550D01*
X126307281Y-63712198D01*
X126353100Y-63554486D01*
X126353295Y-63552001D01*
X126353295Y-63552000D01*
X124287000Y-63552000D01*
X124219961Y-63532315D01*
X124174206Y-63479511D01*
X124163000Y-63428000D01*
X124163000Y-63421506D01*
X124160912Y-63422000D01*
X124057504Y-63422000D01*
X123864318Y-63460427D01*
X123864306Y-63460430D01*
X123682328Y-63535807D01*
X123682315Y-63535814D01*
X123518537Y-63645248D01*
X123518533Y-63645251D01*
X123394181Y-63769604D01*
X123332858Y-63803089D01*
X123263166Y-63798105D01*
X123207233Y-63756233D01*
X123182816Y-63690769D01*
X123182500Y-63681923D01*
X123182500Y-63108500D01*
X123202185Y-63041461D01*
X123254989Y-62995706D01*
X123306500Y-62984500D01*
X123898943Y-62984500D01*
X123965982Y-63004185D01*
X123986619Y-63020814D01*
X124020639Y-63054834D01*
X124053865Y-63088060D01*
X124177436Y-63170628D01*
X124177438Y-63170628D01*
X124177440Y-63170630D01*
X124204507Y-63181841D01*
X124208364Y-63183439D01*
X124244104Y-63212239D01*
X124299610Y-63221233D01*
X124310636Y-63225801D01*
X124314750Y-63227505D01*
X124314754Y-63227506D01*
X124338934Y-63232315D01*
X124338940Y-63232316D01*
X124460516Y-63256501D01*
X124460518Y-63256501D01*
X124587445Y-63256501D01*
X124622039Y-63261424D01*
X124753431Y-63299598D01*
X124790306Y-63302500D01*
X124790314Y-63302500D01*
X125771686Y-63302500D01*
X125771694Y-63302500D01*
X125808569Y-63299598D01*
X125808571Y-63299597D01*
X125808573Y-63299597D01*
X125850191Y-63287505D01*
X125966398Y-63253744D01*
X126107865Y-63170081D01*
X126189628Y-63088317D01*
X126250949Y-63054834D01*
X126277308Y-63052000D01*
X126353295Y-63052000D01*
X126353295Y-63051998D01*
X126353100Y-63049508D01*
X126320555Y-62937491D01*
X126320555Y-62868302D01*
X126353598Y-62754569D01*
X126356500Y-62717694D01*
X126356500Y-62286306D01*
X126353598Y-62249431D01*
X126331432Y-62173137D01*
X126331631Y-62103272D01*
X126335946Y-62091094D01*
X126341687Y-62077236D01*
X126356500Y-61964720D01*
X126356500Y-61739280D01*
X126341687Y-61626764D01*
X126341686Y-61626763D01*
X126340755Y-61619685D01*
X126351520Y-61550650D01*
X126397900Y-61498394D01*
X126463694Y-61479500D01*
X126623622Y-61479500D01*
X126623638Y-61479501D01*
X126631234Y-61479501D01*
X126789345Y-61479501D01*
X126789348Y-61479501D01*
X126942076Y-61438577D01*
X126942078Y-61438575D01*
X126942080Y-61438575D01*
X126942081Y-61438574D01*
X126992486Y-61409473D01*
X126992487Y-61409472D01*
X127079007Y-61359520D01*
X127190811Y-61247716D01*
X127190812Y-61247714D01*
X127446936Y-60991589D01*
X127493658Y-60962231D01*
X127603522Y-60923789D01*
X127756262Y-60827816D01*
X127883816Y-60700262D01*
X127979789Y-60547522D01*
X128039368Y-60377255D01*
X128050958Y-60274394D01*
X128059565Y-60198003D01*
X128059565Y-60197996D01*
X128039369Y-60018750D01*
X128039368Y-60018745D01*
X127979788Y-59848476D01*
X127883815Y-59695737D01*
X127756262Y-59568184D01*
X127603523Y-59472211D01*
X127433254Y-59412631D01*
X127433249Y-59412630D01*
X127399144Y-59408788D01*
X127334730Y-59381722D01*
X127295174Y-59324127D01*
X127293037Y-59254290D01*
X127325344Y-59197889D01*
X128107416Y-58415819D01*
X128168739Y-58382334D01*
X128195097Y-58379500D01*
X128526613Y-58379500D01*
X128526616Y-58379500D01*
X128597196Y-58373086D01*
X128759606Y-58322478D01*
X128905185Y-58234472D01*
X128950289Y-58189368D01*
X129007319Y-58132339D01*
X129068642Y-58098854D01*
X129138334Y-58103838D01*
X129182681Y-58132339D01*
X129284811Y-58234469D01*
X129284813Y-58234470D01*
X129284815Y-58234472D01*
X129430394Y-58322478D01*
X129592804Y-58373086D01*
X129663384Y-58379500D01*
X129663387Y-58379500D01*
X130176613Y-58379500D01*
X130176616Y-58379500D01*
X130247196Y-58373086D01*
X130409606Y-58322478D01*
X130555185Y-58234472D01*
X130675472Y-58114185D01*
X130703090Y-58068499D01*
X130709226Y-58058350D01*
X130760754Y-58011162D01*
X130815343Y-57998500D01*
X130981970Y-57998500D01*
X131029422Y-58007938D01*
G37*
%TD.AperFunction*%
%TA.AperFunction,Conductor*%
G36*
X138085539Y-63155685D02*
G01*
X138131294Y-63208489D01*
X138142500Y-63260000D01*
X138142500Y-64153201D01*
X138145401Y-64190067D01*
X138145402Y-64190070D01*
X138183322Y-64320588D01*
X138183123Y-64390458D01*
X138181288Y-64396138D01*
X138157632Y-64463742D01*
X138157630Y-64463750D01*
X138137435Y-64642996D01*
X138137435Y-64643003D01*
X138157630Y-64822249D01*
X138157631Y-64822254D01*
X138217211Y-64992523D01*
X138281626Y-65095038D01*
X138313184Y-65145262D01*
X138440738Y-65272816D01*
X138469208Y-65290705D01*
X138589048Y-65366006D01*
X138635339Y-65418341D01*
X138645987Y-65487395D01*
X138617612Y-65551243D01*
X138589048Y-65575994D01*
X138440737Y-65669184D01*
X138313184Y-65796737D01*
X138217211Y-65949476D01*
X138157631Y-66119745D01*
X138157630Y-66119750D01*
X138137435Y-66298996D01*
X138137435Y-66299003D01*
X138157630Y-66478246D01*
X138157631Y-66478252D01*
X138180494Y-66543591D01*
X138184055Y-66613370D01*
X138182528Y-66619140D01*
X138145402Y-66746926D01*
X138145401Y-66746932D01*
X138142500Y-66783798D01*
X138142500Y-67320500D01*
X138122815Y-67387539D01*
X138070011Y-67433294D01*
X138018500Y-67444500D01*
X134647427Y-67444500D01*
X134580388Y-67424815D01*
X134534633Y-67372011D01*
X134524689Y-67302853D01*
X134529721Y-67281497D01*
X134556855Y-67199608D01*
X134566999Y-67100322D01*
X134567000Y-67100309D01*
X134567000Y-67052000D01*
X133491000Y-67052000D01*
X133423961Y-67032315D01*
X133378206Y-66979511D01*
X133367000Y-66928000D01*
X133367000Y-66676000D01*
X133386685Y-66608961D01*
X133439489Y-66563206D01*
X133491000Y-66552000D01*
X134566999Y-66552000D01*
X134566999Y-66503692D01*
X134566998Y-66503677D01*
X134556856Y-66404395D01*
X134552635Y-66391658D01*
X134550231Y-66321829D01*
X134585961Y-66261786D01*
X134648480Y-66230592D01*
X134654119Y-66229715D01*
X134697472Y-66224009D01*
X134834429Y-66167279D01*
X134952036Y-66077036D01*
X135042279Y-65959429D01*
X135099009Y-65822472D01*
X135113500Y-65712401D01*
X135113500Y-65564322D01*
X135931001Y-65564322D01*
X135941144Y-65663607D01*
X135994452Y-65824481D01*
X135994457Y-65824492D01*
X136083424Y-65968728D01*
X136083427Y-65968732D01*
X136203267Y-66088572D01*
X136203271Y-66088575D01*
X136347507Y-66177542D01*
X136347518Y-66177547D01*
X136508393Y-66230855D01*
X136607683Y-66240999D01*
X137156000Y-66240999D01*
X137204308Y-66240999D01*
X137204322Y-66240998D01*
X137303607Y-66230855D01*
X137464481Y-66177547D01*
X137464492Y-66177542D01*
X137608728Y-66088575D01*
X137608732Y-66088572D01*
X137728572Y-65968732D01*
X137728575Y-65968728D01*
X137817542Y-65824492D01*
X137817547Y-65824481D01*
X137870855Y-65663606D01*
X137881000Y-65564319D01*
X137881000Y-65541000D01*
X137156000Y-65541000D01*
X137156000Y-66240999D01*
X136607683Y-66240999D01*
X136655999Y-66240998D01*
X136656000Y-66240998D01*
X136656000Y-65541000D01*
X135931001Y-65541000D01*
X135931001Y-65564322D01*
X135113500Y-65564322D01*
X135113499Y-65387498D01*
X135133183Y-65320460D01*
X135185987Y-65274705D01*
X135237499Y-65263499D01*
X135562403Y-65263499D01*
X135672463Y-65249011D01*
X135672467Y-65249009D01*
X135672472Y-65249009D01*
X135809429Y-65192279D01*
X135927036Y-65102036D01*
X135936645Y-65089512D01*
X135993073Y-65048311D01*
X136035021Y-65041000D01*
X137880999Y-65041000D01*
X137880999Y-65017692D01*
X137880998Y-65017677D01*
X137870855Y-64918392D01*
X137817547Y-64757518D01*
X137817542Y-64757507D01*
X137728575Y-64613271D01*
X137728572Y-64613267D01*
X137719339Y-64604034D01*
X137685854Y-64542711D01*
X137690838Y-64473019D01*
X137719343Y-64428668D01*
X137728968Y-64419044D01*
X137818003Y-64274697D01*
X137871349Y-64113708D01*
X137881500Y-64014345D01*
X137881499Y-63467656D01*
X137880245Y-63455384D01*
X137871349Y-63368292D01*
X137867105Y-63355485D01*
X137848388Y-63299002D01*
X137845987Y-63229176D01*
X137881718Y-63169134D01*
X137944239Y-63137941D01*
X137966095Y-63136000D01*
X138018500Y-63136000D01*
X138085539Y-63155685D01*
G37*
%TD.AperFunction*%
%TA.AperFunction,Conductor*%
G36*
X128629791Y-49844325D02*
G01*
X128675546Y-49897129D01*
X128685490Y-49966287D01*
X128656465Y-50029843D01*
X128597687Y-50067617D01*
X128578939Y-50071579D01*
X128571940Y-50072500D01*
X128531019Y-50083464D01*
X128531019Y-50083465D01*
X128493751Y-50093451D01*
X128419214Y-50113423D01*
X128419209Y-50113426D01*
X128282290Y-50192475D01*
X128282282Y-50192481D01*
X127788163Y-50686600D01*
X127766886Y-50723454D01*
X127757893Y-50739032D01*
X127709107Y-50823531D01*
X127668183Y-50976259D01*
X127668183Y-50976261D01*
X127668183Y-51144362D01*
X127668184Y-51144375D01*
X127668184Y-51886792D01*
X127648499Y-51953831D01*
X127631865Y-51974473D01*
X127513215Y-52093122D01*
X127513214Y-52093123D01*
X127425206Y-52238705D01*
X127374597Y-52401119D01*
X127368184Y-52471698D01*
X127368184Y-53134925D01*
X127374597Y-53205504D01*
X127374597Y-53205506D01*
X127374598Y-53205508D01*
X127425206Y-53367918D01*
X127486916Y-53469999D01*
X127516840Y-53519498D01*
X127534676Y-53587053D01*
X127516840Y-53647797D01*
X127436423Y-53780824D01*
X127436422Y-53780826D01*
X127436422Y-53780827D01*
X127412774Y-53856717D01*
X127385813Y-53943240D01*
X127379400Y-54013819D01*
X127379400Y-54677046D01*
X127385813Y-54747625D01*
X127385813Y-54747627D01*
X127385814Y-54747629D01*
X127436422Y-54910039D01*
X127515215Y-55040378D01*
X127533051Y-55107931D01*
X127515215Y-55168677D01*
X127484401Y-55219650D01*
X127432874Y-55266837D01*
X127378284Y-55279500D01*
X127079057Y-55279500D01*
X126920942Y-55279500D01*
X126768215Y-55320423D01*
X126768214Y-55320423D01*
X126768212Y-55320424D01*
X126768209Y-55320425D01*
X126718096Y-55349359D01*
X126718095Y-55349360D01*
X126674689Y-55374420D01*
X126631285Y-55399479D01*
X126631282Y-55399481D01*
X126548764Y-55482000D01*
X126519480Y-55511284D01*
X126519478Y-55511286D01*
X126463404Y-55567360D01*
X126435180Y-55595584D01*
X126373856Y-55629068D01*
X126304165Y-55624084D01*
X126248231Y-55582212D01*
X126225881Y-55532092D01*
X126217570Y-55490310D01*
X126217569Y-55490306D01*
X126142192Y-55308328D01*
X126142185Y-55308315D01*
X126032751Y-55144537D01*
X126032748Y-55144533D01*
X125893466Y-55005251D01*
X125893462Y-55005248D01*
X125729684Y-54895814D01*
X125729671Y-54895807D01*
X125547693Y-54820430D01*
X125547681Y-54820427D01*
X125354495Y-54782000D01*
X124956000Y-54782000D01*
X124956000Y-55482000D01*
X124456000Y-55482000D01*
X124456000Y-54782000D01*
X124057504Y-54782000D01*
X123864318Y-54820427D01*
X123864306Y-54820430D01*
X123682328Y-54895807D01*
X123682315Y-54895814D01*
X123518537Y-55005248D01*
X123518533Y-55005251D01*
X123379251Y-55144533D01*
X123379248Y-55144537D01*
X123269814Y-55308315D01*
X123269807Y-55308328D01*
X123194430Y-55490307D01*
X123194430Y-55490309D01*
X123186138Y-55532000D01*
X123989012Y-55532000D01*
X123971795Y-55541940D01*
X123915940Y-55597795D01*
X123876444Y-55666204D01*
X123856000Y-55742504D01*
X123856000Y-55821496D01*
X123876444Y-55897796D01*
X123915940Y-55966205D01*
X123971795Y-56022060D01*
X123989012Y-56032000D01*
X123186138Y-56032000D01*
X123194430Y-56073690D01*
X123194430Y-56073692D01*
X123269807Y-56255671D01*
X123269814Y-56255684D01*
X123379248Y-56419462D01*
X123379251Y-56419466D01*
X123518533Y-56558748D01*
X123518537Y-56558751D01*
X123682315Y-56668185D01*
X123682328Y-56668192D01*
X123864306Y-56743569D01*
X123864318Y-56743572D01*
X124057504Y-56781999D01*
X124057508Y-56782000D01*
X124163000Y-56782000D01*
X124163000Y-56776000D01*
X124182685Y-56708961D01*
X124235489Y-56663206D01*
X124287000Y-56652000D01*
X125031000Y-56652000D01*
X125031000Y-56183000D01*
X125050685Y-56115961D01*
X125089878Y-56082000D01*
X125295496Y-56082000D01*
X125371796Y-56061556D01*
X125376223Y-56059000D01*
X125407000Y-56059000D01*
X125474039Y-56078685D01*
X125519794Y-56131489D01*
X125531000Y-56183000D01*
X125531000Y-56777500D01*
X125511315Y-56844539D01*
X125458511Y-56890294D01*
X125407000Y-56901500D01*
X124790298Y-56901500D01*
X124753432Y-56904401D01*
X124753426Y-56904402D01*
X124595597Y-56950257D01*
X124588793Y-56953201D01*
X124563753Y-56961012D01*
X124535983Y-56966536D01*
X124515653Y-56970581D01*
X124515651Y-56970581D01*
X124485928Y-56976493D01*
X124485920Y-56976495D01*
X124430064Y-56999632D01*
X124430063Y-56999632D01*
X124348611Y-57033370D01*
X124348609Y-57033371D01*
X124312500Y-57057499D01*
X124225034Y-57115941D01*
X124185792Y-57155184D01*
X124119942Y-57221034D01*
X124119940Y-57221036D01*
X121841943Y-59499031D01*
X121841942Y-59499032D01*
X121759367Y-59622615D01*
X121742840Y-59662518D01*
X121742840Y-59662519D01*
X121702496Y-59759917D01*
X121702495Y-59759919D01*
X121702495Y-59759921D01*
X121699354Y-59775714D01*
X121699354Y-59775715D01*
X121673499Y-59905687D01*
X121673499Y-60060426D01*
X121673500Y-60060447D01*
X121673500Y-63486785D01*
X121653815Y-63553824D01*
X121601011Y-63599579D01*
X121531853Y-63609523D01*
X121480609Y-63589887D01*
X121399684Y-63535814D01*
X121399671Y-63535807D01*
X121217693Y-63460430D01*
X121217681Y-63460427D01*
X121024495Y-63422000D01*
X120776000Y-63422000D01*
X120776000Y-64122000D01*
X120276000Y-64122000D01*
X120276000Y-63422000D01*
X120027504Y-63422000D01*
X119834318Y-63460427D01*
X119834306Y-63460430D01*
X119652328Y-63535807D01*
X119652315Y-63535814D01*
X119488537Y-63645248D01*
X119488533Y-63645251D01*
X119349251Y-63784533D01*
X119349248Y-63784537D01*
X119239814Y-63948315D01*
X119239807Y-63948328D01*
X119164430Y-64130307D01*
X119164430Y-64130309D01*
X119156138Y-64172000D01*
X119959012Y-64172000D01*
X119941795Y-64181940D01*
X119885940Y-64237795D01*
X119846444Y-64306204D01*
X119826000Y-64382504D01*
X119826000Y-64461496D01*
X119846444Y-64537796D01*
X119885940Y-64606205D01*
X119941795Y-64662060D01*
X119959012Y-64672000D01*
X119156138Y-64672000D01*
X119164430Y-64713690D01*
X119164430Y-64713692D01*
X119239807Y-64895671D01*
X119239814Y-64895684D01*
X119349248Y-65059462D01*
X119349251Y-65059466D01*
X119488533Y-65198748D01*
X119488537Y-65198751D01*
X119652315Y-65308185D01*
X119652328Y-65308192D01*
X119834306Y-65383569D01*
X119834318Y-65383572D01*
X120027504Y-65421999D01*
X120027508Y-65422000D01*
X120276000Y-65422000D01*
X120276000Y-64722000D01*
X120776000Y-64722000D01*
X120776000Y-65422000D01*
X121024492Y-65422000D01*
X121024495Y-65421999D01*
X121217681Y-65383572D01*
X121217693Y-65383569D01*
X121399671Y-65308192D01*
X121399678Y-65308188D01*
X121480608Y-65254112D01*
X121547285Y-65233234D01*
X121614666Y-65251718D01*
X121661356Y-65303696D01*
X121673500Y-65357214D01*
X121673500Y-66722552D01*
X121673499Y-66722578D01*
X121673499Y-66876314D01*
X121695126Y-66985035D01*
X121695126Y-66985036D01*
X121702492Y-67022072D01*
X121702495Y-67022080D01*
X121726053Y-67078955D01*
X121730077Y-67088669D01*
X121737542Y-67158139D01*
X121706263Y-67220617D01*
X121646173Y-67256266D01*
X121576348Y-67253768D01*
X121546614Y-67239213D01*
X118279401Y-65055743D01*
X118234600Y-65002127D01*
X118224300Y-64952646D01*
X118224300Y-55532000D01*
X119156138Y-55532000D01*
X119959012Y-55532000D01*
X119941795Y-55541940D01*
X119885940Y-55597795D01*
X119846444Y-55666204D01*
X119826000Y-55742504D01*
X119826000Y-55821496D01*
X119846444Y-55897796D01*
X119885940Y-55966205D01*
X119941795Y-56022060D01*
X119959012Y-56032000D01*
X119156138Y-56032000D01*
X119164430Y-56073690D01*
X119164430Y-56073692D01*
X119239807Y-56255671D01*
X119239814Y-56255684D01*
X119349248Y-56419462D01*
X119349251Y-56419466D01*
X119488533Y-56558748D01*
X119488537Y-56558751D01*
X119652315Y-56668185D01*
X119652328Y-56668192D01*
X119834306Y-56743569D01*
X119834318Y-56743572D01*
X120027504Y-56781999D01*
X120027508Y-56782000D01*
X120276000Y-56782000D01*
X120276000Y-56082000D01*
X120776000Y-56082000D01*
X120776000Y-56782000D01*
X121024492Y-56782000D01*
X121024495Y-56781999D01*
X121217681Y-56743572D01*
X121217693Y-56743569D01*
X121399671Y-56668192D01*
X121399684Y-56668185D01*
X121563462Y-56558751D01*
X121563466Y-56558748D01*
X121702748Y-56419466D01*
X121702751Y-56419462D01*
X121812185Y-56255684D01*
X121812192Y-56255671D01*
X121887569Y-56073692D01*
X121887569Y-56073690D01*
X121895862Y-56032000D01*
X121092988Y-56032000D01*
X121110205Y-56022060D01*
X121166060Y-55966205D01*
X121205556Y-55897796D01*
X121226000Y-55821496D01*
X121226000Y-55742504D01*
X121205556Y-55666204D01*
X121166060Y-55597795D01*
X121110205Y-55541940D01*
X121092988Y-55532000D01*
X121895862Y-55532000D01*
X121887569Y-55490309D01*
X121887569Y-55490307D01*
X121812192Y-55308328D01*
X121812185Y-55308315D01*
X121702751Y-55144537D01*
X121702748Y-55144533D01*
X121563466Y-55005251D01*
X121563462Y-55005248D01*
X121399684Y-54895814D01*
X121399671Y-54895807D01*
X121217693Y-54820430D01*
X121217681Y-54820427D01*
X121024495Y-54782000D01*
X120776000Y-54782000D01*
X120776000Y-55482000D01*
X120276000Y-55482000D01*
X120276000Y-54782000D01*
X120027504Y-54782000D01*
X119834318Y-54820427D01*
X119834306Y-54820430D01*
X119652328Y-54895807D01*
X119652315Y-54895814D01*
X119488537Y-55005248D01*
X119488533Y-55005251D01*
X119349251Y-55144533D01*
X119349248Y-55144537D01*
X119239814Y-55308315D01*
X119239807Y-55308328D01*
X119164430Y-55490307D01*
X119164430Y-55490309D01*
X119156138Y-55532000D01*
X118224300Y-55532000D01*
X118224300Y-55123562D01*
X118243985Y-55056523D01*
X118283015Y-55018140D01*
X125198656Y-50735643D01*
X126639801Y-49843217D01*
X126705084Y-49824640D01*
X128562752Y-49824640D01*
X128629791Y-49844325D01*
G37*
%TD.AperFunction*%
%TA.AperFunction,Conductor*%
G36*
X133770514Y-62347501D02*
G01*
X133770674Y-62346905D01*
X133778524Y-62349008D01*
X133778526Y-62349008D01*
X133778528Y-62349009D01*
X133888599Y-62363500D01*
X134087400Y-62363499D01*
X134128830Y-62358045D01*
X134197866Y-62368811D01*
X134250121Y-62415191D01*
X134269006Y-62482460D01*
X134267954Y-62497169D01*
X134262500Y-62538597D01*
X134262500Y-62737403D01*
X134276989Y-62847468D01*
X134279094Y-62855322D01*
X134275814Y-62856200D01*
X134281581Y-62910073D01*
X134278517Y-62920522D01*
X134279095Y-62920677D01*
X134276990Y-62928529D01*
X134262500Y-63038598D01*
X134262500Y-63237403D01*
X134276989Y-63347468D01*
X134279094Y-63355322D01*
X134275814Y-63356200D01*
X134281581Y-63410073D01*
X134278517Y-63420522D01*
X134279095Y-63420677D01*
X134276990Y-63428529D01*
X134262500Y-63538598D01*
X134262500Y-63737403D01*
X134276989Y-63847468D01*
X134279094Y-63855322D01*
X134275814Y-63856200D01*
X134281581Y-63910073D01*
X134278517Y-63920522D01*
X134279095Y-63920677D01*
X134276990Y-63928529D01*
X134262500Y-64038598D01*
X134262500Y-64237396D01*
X134267955Y-64278833D01*
X134257187Y-64347868D01*
X134210806Y-64400123D01*
X134143536Y-64419006D01*
X134128830Y-64417954D01*
X134087401Y-64412500D01*
X133888596Y-64412500D01*
X133778531Y-64426989D01*
X133770678Y-64429094D01*
X133769802Y-64425824D01*
X133715853Y-64431567D01*
X133705477Y-64428518D01*
X133705323Y-64429095D01*
X133697470Y-64426990D01*
X133587401Y-64412500D01*
X133388596Y-64412500D01*
X133278531Y-64426989D01*
X133270678Y-64429094D01*
X133269802Y-64425824D01*
X133215853Y-64431567D01*
X133205477Y-64428518D01*
X133205323Y-64429095D01*
X133197470Y-64426990D01*
X133087401Y-64412500D01*
X132888596Y-64412500D01*
X132778531Y-64426989D01*
X132770678Y-64429094D01*
X132769802Y-64425824D01*
X132715853Y-64431567D01*
X132705477Y-64428518D01*
X132705323Y-64429095D01*
X132697470Y-64426990D01*
X132587401Y-64412500D01*
X132388603Y-64412500D01*
X132347166Y-64417955D01*
X132278131Y-64407187D01*
X132225876Y-64360805D01*
X132206993Y-64293536D01*
X132208045Y-64278833D01*
X132213500Y-64237401D01*
X132213499Y-64038600D01*
X132199009Y-63928528D01*
X132199008Y-63928525D01*
X132196905Y-63920674D01*
X132200207Y-63919789D01*
X132194392Y-63866075D01*
X132197501Y-63855485D01*
X132196905Y-63855326D01*
X132199008Y-63847475D01*
X132199008Y-63847474D01*
X132199009Y-63847472D01*
X132213500Y-63737401D01*
X132213499Y-63538600D01*
X132213131Y-63535807D01*
X132205720Y-63479511D01*
X132199009Y-63428528D01*
X132199008Y-63428525D01*
X132196905Y-63420674D01*
X132200207Y-63419789D01*
X132194392Y-63366075D01*
X132197501Y-63355485D01*
X132196905Y-63355326D01*
X132199008Y-63347475D01*
X132199008Y-63347474D01*
X132199009Y-63347472D01*
X132213500Y-63237401D01*
X132213499Y-63038600D01*
X132213499Y-63038598D01*
X132213499Y-63038596D01*
X132199011Y-62928536D01*
X132196906Y-62920682D01*
X132200007Y-62919850D01*
X132194128Y-62865382D01*
X132197147Y-62855389D01*
X132196418Y-62855194D01*
X132198521Y-62847342D01*
X132209626Y-62763000D01*
X132181506Y-62763000D01*
X132114467Y-62743315D01*
X132083115Y-62714466D01*
X132082348Y-62713466D01*
X132057167Y-62648292D01*
X132071219Y-62579850D01*
X132082348Y-62562534D01*
X132083115Y-62561534D01*
X132139534Y-62520319D01*
X132181506Y-62513000D01*
X132209626Y-62513000D01*
X132207533Y-62497103D01*
X132218298Y-62428068D01*
X132264678Y-62375812D01*
X132331947Y-62356926D01*
X132346651Y-62357977D01*
X132388599Y-62363500D01*
X132587400Y-62363499D01*
X132587401Y-62363499D01*
X132604087Y-62361302D01*
X132697472Y-62349009D01*
X132697475Y-62349007D01*
X132705326Y-62346905D01*
X132706210Y-62350207D01*
X132759925Y-62344392D01*
X132770514Y-62347501D01*
X132770674Y-62346905D01*
X132778524Y-62349008D01*
X132778526Y-62349008D01*
X132778528Y-62349009D01*
X132888599Y-62363500D01*
X133087400Y-62363499D01*
X133087401Y-62363499D01*
X133104087Y-62361302D01*
X133197472Y-62349009D01*
X133197475Y-62349007D01*
X133205326Y-62346905D01*
X133206210Y-62350207D01*
X133259925Y-62344392D01*
X133270514Y-62347501D01*
X133270674Y-62346905D01*
X133278524Y-62349008D01*
X133278526Y-62349008D01*
X133278528Y-62349009D01*
X133388599Y-62363500D01*
X133587400Y-62363499D01*
X133587401Y-62363499D01*
X133604087Y-62361302D01*
X133697472Y-62349009D01*
X133697475Y-62349007D01*
X133705326Y-62346905D01*
X133706210Y-62350207D01*
X133759925Y-62344392D01*
X133770514Y-62347501D01*
G37*
%TD.AperFunction*%
%TA.AperFunction,Conductor*%
G36*
X133126177Y-51293185D02*
G01*
X133146819Y-51309819D01*
X133149000Y-51312000D01*
X134225000Y-51312000D01*
X134292039Y-51331685D01*
X134337794Y-51384489D01*
X134349000Y-51436000D01*
X134349000Y-52536999D01*
X134372308Y-52536999D01*
X134372322Y-52536998D01*
X134471607Y-52526855D01*
X134632481Y-52473547D01*
X134632492Y-52473542D01*
X134776731Y-52384573D01*
X134785959Y-52375345D01*
X134847279Y-52341856D01*
X134916971Y-52346835D01*
X134961327Y-52375339D01*
X134970955Y-52384967D01*
X134970959Y-52384970D01*
X135115294Y-52473998D01*
X135115297Y-52473999D01*
X135115303Y-52474003D01*
X135276292Y-52527349D01*
X135375655Y-52537500D01*
X135922344Y-52537499D01*
X135922352Y-52537498D01*
X135922355Y-52537498D01*
X135976760Y-52531940D01*
X136021708Y-52527349D01*
X136182697Y-52474003D01*
X136247577Y-52433984D01*
X136314966Y-52415544D01*
X136381630Y-52436466D01*
X136426400Y-52490107D01*
X136435062Y-52559437D01*
X136427233Y-52586975D01*
X136404267Y-52642422D01*
X136404266Y-52642425D01*
X136404266Y-52642426D01*
X136404265Y-52642429D01*
X136378500Y-52771957D01*
X136378500Y-52904042D01*
X136404265Y-53033570D01*
X136404268Y-53033582D01*
X136438219Y-53115548D01*
X136445688Y-53185018D01*
X136438219Y-53210452D01*
X136404268Y-53292417D01*
X136404265Y-53292429D01*
X136378500Y-53421957D01*
X136378500Y-53554042D01*
X136404265Y-53683570D01*
X136404268Y-53683582D01*
X136438219Y-53765548D01*
X136445688Y-53835018D01*
X136438219Y-53860452D01*
X136404268Y-53942417D01*
X136404265Y-53942429D01*
X136378500Y-54071957D01*
X136378500Y-54204042D01*
X136404265Y-54333570D01*
X136404267Y-54333578D01*
X136440291Y-54420547D01*
X136447760Y-54490017D01*
X136440291Y-54515453D01*
X136404267Y-54602421D01*
X136404265Y-54602429D01*
X136378500Y-54731957D01*
X136378500Y-54864042D01*
X136404265Y-54993570D01*
X136404268Y-54993582D01*
X136438219Y-55075548D01*
X136445688Y-55145018D01*
X136438219Y-55170452D01*
X136404268Y-55252417D01*
X136404265Y-55252429D01*
X136378500Y-55381957D01*
X136378500Y-55514042D01*
X136404265Y-55643570D01*
X136404268Y-55643582D01*
X136438219Y-55725548D01*
X136445688Y-55795018D01*
X136438219Y-55820452D01*
X136404268Y-55902417D01*
X136404265Y-55902429D01*
X136378500Y-56031957D01*
X136378500Y-56164042D01*
X136404265Y-56293570D01*
X136404268Y-56293582D01*
X136438219Y-56375548D01*
X136445688Y-56445018D01*
X136438219Y-56470452D01*
X136404268Y-56552417D01*
X136404265Y-56552429D01*
X136378500Y-56681957D01*
X136378500Y-56814042D01*
X136404265Y-56943570D01*
X136404268Y-56943582D01*
X136438219Y-57025548D01*
X136445688Y-57095018D01*
X136438219Y-57120452D01*
X136404268Y-57202417D01*
X136404265Y-57202429D01*
X136378500Y-57331957D01*
X136378500Y-57452686D01*
X136358815Y-57519725D01*
X136308301Y-57564406D01*
X136302481Y-57567208D01*
X136149736Y-57663185D01*
X136146903Y-57665445D01*
X136144724Y-57666334D01*
X136143842Y-57666889D01*
X136143744Y-57666734D01*
X136082217Y-57691855D01*
X136069588Y-57692500D01*
X134455500Y-57692500D01*
X134388461Y-57672815D01*
X134342706Y-57620011D01*
X134331500Y-57568500D01*
X134331500Y-55715059D01*
X134331501Y-55715046D01*
X134331501Y-55546945D01*
X134331501Y-55546943D01*
X134290577Y-55394215D01*
X134290576Y-55394214D01*
X134290576Y-55394212D01*
X134290575Y-55394211D01*
X134247042Y-55318810D01*
X134247042Y-55318809D01*
X134211524Y-55257290D01*
X134211521Y-55257286D01*
X134211520Y-55257284D01*
X134099716Y-55145480D01*
X134099715Y-55145479D01*
X134095385Y-55141149D01*
X134095374Y-55141139D01*
X134040590Y-55086355D01*
X134040588Y-55086352D01*
X133921717Y-54967481D01*
X133921716Y-54967480D01*
X133823740Y-54910914D01*
X133784785Y-54888423D01*
X133632057Y-54847499D01*
X133493266Y-54847499D01*
X133426227Y-54827814D01*
X133380472Y-54775010D01*
X133369862Y-54735646D01*
X133369500Y-54731970D01*
X133369500Y-54731962D01*
X133343733Y-54602422D01*
X133307709Y-54515453D01*
X133300240Y-54445983D01*
X133307709Y-54420547D01*
X133311231Y-54412044D01*
X133343733Y-54333578D01*
X133369500Y-54204038D01*
X133369500Y-54071962D01*
X133363479Y-54041694D01*
X133369705Y-53972104D01*
X133397415Y-53929821D01*
X133470520Y-53856716D01*
X133549577Y-53719784D01*
X133590500Y-53567057D01*
X133590500Y-53408943D01*
X133549577Y-53256216D01*
X133549573Y-53256209D01*
X133470524Y-53119290D01*
X133470518Y-53119282D01*
X133358717Y-53007481D01*
X133358709Y-53007475D01*
X133221790Y-52928426D01*
X133221786Y-52928424D01*
X133221784Y-52928423D01*
X133159649Y-52911774D01*
X133099990Y-52875410D01*
X133069461Y-52812563D01*
X133077756Y-52743188D01*
X133122241Y-52689310D01*
X133188793Y-52668035D01*
X133191744Y-52668000D01*
X133348311Y-52668000D01*
X133348311Y-52667999D01*
X133343254Y-52642574D01*
X133343252Y-52642569D01*
X133319712Y-52585739D01*
X133312243Y-52516270D01*
X133343518Y-52453791D01*
X133403606Y-52418138D01*
X133473431Y-52420631D01*
X133499370Y-52432748D01*
X133565507Y-52473542D01*
X133565518Y-52473547D01*
X133726393Y-52526855D01*
X133825683Y-52536999D01*
X133849000Y-52536998D01*
X133849000Y-51812000D01*
X133149001Y-51812000D01*
X133149001Y-51860322D01*
X133159144Y-51959608D01*
X133207348Y-52105080D01*
X133209750Y-52174908D01*
X133174018Y-52234950D01*
X133111497Y-52266142D01*
X133042038Y-52258581D01*
X133020748Y-52247183D01*
X133016368Y-52244256D01*
X133016361Y-52244252D01*
X132894432Y-52193748D01*
X132894426Y-52193746D01*
X132764991Y-52168000D01*
X132174000Y-52168000D01*
X132174000Y-52693500D01*
X132154315Y-52760539D01*
X132101511Y-52806294D01*
X132050000Y-52817500D01*
X131958000Y-52817500D01*
X131890961Y-52797815D01*
X131845206Y-52745011D01*
X131834000Y-52693500D01*
X131834000Y-52168000D01*
X131243009Y-52168000D01*
X131113573Y-52193746D01*
X131113567Y-52193748D01*
X130991638Y-52244252D01*
X130991626Y-52244259D01*
X130938454Y-52279787D01*
X130871777Y-52300664D01*
X130804397Y-52282179D01*
X130763448Y-52240834D01*
X130759891Y-52234950D01*
X130674156Y-52093127D01*
X130674154Y-52093125D01*
X130674153Y-52093123D01*
X130553872Y-51972842D01*
X130531980Y-51959608D01*
X130408290Y-51884834D01*
X130245880Y-51834226D01*
X130245878Y-51834225D01*
X130245876Y-51834225D01*
X130196462Y-51829735D01*
X130175300Y-51827812D01*
X129662068Y-51827812D01*
X129642829Y-51829560D01*
X129591491Y-51834225D01*
X129429077Y-51884834D01*
X129283495Y-51972842D01*
X129283494Y-51972843D01*
X129181365Y-52074973D01*
X129120042Y-52108458D01*
X129050350Y-52103474D01*
X129006003Y-52074973D01*
X128905503Y-51974473D01*
X128872018Y-51913150D01*
X128869184Y-51886792D01*
X128869184Y-51397500D01*
X128888869Y-51330461D01*
X128941673Y-51284706D01*
X128993184Y-51273500D01*
X133059138Y-51273500D01*
X133126177Y-51293185D01*
G37*
%TD.AperFunction*%
%TD*%
M02*
