M48
; DRILL file {KiCad 8.0.4} date 2024-08-06T21:58:01+0700
; FORMAT={-:-/ absolute / inch / decimal}
; #@! TF.CreationDate,2024-08-06T21:58:01+07:00
; #@! TF.GenerationSoftware,Kicad,Pcbnew,8.0.4
; #@! TF.FileFunction,Plated,1,2,PTH
FMAT,2
INCH
; #@! TA.AperFunction,Plated,PTH,ViaDrill
T1C0.0157
; #@! TA.AperFunction,Plated,PTH,ComponentDrill
T2C0.0236
%
G90
G05
T1
X4.6996Y-2.4101
X4.7Y-2.38
X4.73Y-2.38
X4.73Y-2.41
X4.88Y-2.34
X4.905Y-2.055
X4.905Y-2.085
X4.935Y-2.055
X4.935Y-2.085
X4.98Y-2.3761
X4.99Y-2.26
X5.01Y-2.37
X5.015Y-2.515
X5.015Y-2.545
X5.045Y-2.515
X5.045Y-2.545
X5.0798Y-2.4602
X5.08Y-2.33
X5.08Y-2.36
X5.1Y-2.44
X5.11Y-2.33
X5.11Y-2.36
X5.1419Y-2.1058
X5.16Y-2.685
X5.2Y-2.3
X5.2Y-2.33
X5.215Y-2.47
X5.215Y-2.5
X5.215Y-2.53
X5.23Y-2.3
X5.23Y-2.33
X5.305Y-2.125
X5.305Y-2.155
X5.33Y-2.63
X5.335Y-2.125
X5.335Y-2.155
X5.36Y-2.63
X5.38Y-2.295
X5.38Y-2.4671
X5.39Y-2.63
X5.445Y-2.03
X5.4702Y-2.545
X5.4702Y-2.6102
X5.525Y-2.59
X5.545Y-2.095
X5.545Y-2.125
X5.545Y-2.295
X5.56Y-2.72
X5.56Y-2.75
X5.575Y-2.095
X5.575Y-2.125
X5.588Y-2.51
X5.59Y-2.315
X5.608Y-2.528
X5.755Y-2.655
X5.785Y-2.275
X5.795Y-2.035
X5.795Y-2.065
X5.82Y-2.365
X5.82Y-2.395
X5.82Y-2.72
X5.82Y-2.75
X5.825Y-2.035
X5.825Y-2.065
T2
G00X4.7609Y-2.1961
M15
G01X4.7294Y-2.1961
M16
G05
G00X4.7609Y-2.5363
M15
G01X4.7294Y-2.5363
M16
G05
G00X4.9313Y-2.1961
M15
G01X4.888Y-2.1961
M16
G05
G00X4.9313Y-2.5363
M15
G01X4.888Y-2.5363
M16
G05
M30
